<svg width="128" height="40" viewBox="0 0 128 40" fill="none" xmlns="http://www.w3.org/2000/svg">
<path d="M56.0396 36.0244V3H49.7178V36.0244H56.0396Z" fill="white"/>
<path fill-rule="evenodd" clip-rule="evenodd" d="M26.1927 29.8116V29.9907C26.1927 33.9914 29.6299 36.4403 33.3822 36.4403C35.7332 36.4403 38.1825 35.6284 39.8226 33.3146L39.8813 33.3337C39.8813 34.1647 39.8813 35.1938 40.0205 36.0248H45.9128C45.7845 34.8686 45.7253 33.7057 45.7354 32.5424V22.6089C45.7354 16.7921 41.7838 13.8838 36.4104 13.8838C31.8871 13.8838 27.4445 16.0992 26.7116 20.7106L32.2433 21.9571C32.7167 20.1366 34.1986 19.009 36.1143 19.009C38.4067 19.009 39.5324 20.2951 39.5324 21.6987C39.5324 22.5708 39.0179 23.183 37.8336 23.183H35.72C31.506 23.183 26.1927 24.6482 26.1927 29.8116ZM39.487 27.1602V27.6549C39.487 29.8116 37.9655 31.8303 35.1997 31.8362C33.8571 31.8362 32.5731 31.177 32.5731 29.634C32.5731 27.9324 34.4097 27.1602 35.7142 27.1602H39.487Z" fill="white"/>
<path d="M80.2184 23.9343V36.0245H73.9319V24.0078C73.9319 21.6734 73.0026 19.8133 70.4141 19.8133C67.8256 19.8133 66.549 21.5413 66.549 24.0078V36.0186H60.2668V14.3973H66.4566V17.2279H66.5153C67.7802 15.0506 70.3877 13.9025 72.837 13.9025C75.4255 13.9025 77.9143 14.9713 79.1397 17.3453C81.1741 15.0697 83.2086 13.9025 86.3306 13.9025C91.6248 13.9025 93.9158 17.5832 93.9158 22.5102V36.0245H87.6131V23.9343C87.6131 21.5853 86.6838 19.8235 84.0953 19.8235C81.542 19.8191 80.2184 21.4811 80.2184 23.9343Z" fill="white"/>
<path fill-rule="evenodd" clip-rule="evenodd" d="M96.6714 29.8116V29.9907C96.6714 33.9914 100.109 36.4403 103.862 36.4403C106.212 36.4403 108.663 35.6284 110.301 33.3146L110.361 33.3337C110.361 34.1647 110.361 35.1938 110.499 36.0248H116.391C116.263 34.8686 116.204 33.7057 116.214 32.5424V22.6089C116.214 16.7921 112.262 13.8838 106.891 13.8838C102.366 13.8838 97.9231 16.0992 97.1903 20.7106L102.722 21.9571C103.195 20.1366 104.677 19.009 106.593 19.009C108.885 19.009 110.011 20.2951 110.011 21.6987C110.011 22.5708 109.498 23.183 108.312 23.183H106.199C101.985 23.183 96.6714 24.6482 96.6714 29.8116ZM109.966 27.1602V27.6549C109.966 29.8116 108.444 31.8303 105.678 31.8362C104.336 31.8362 103.052 31.177 103.052 29.634C103.052 27.9324 104.888 27.1602 106.193 27.1602H109.966Z" fill="white"/>
<path d="M119.25 32.1455C119.244 31.2774 119.496 30.4272 119.974 29.7027C120.451 28.9783 121.133 28.4123 121.932 28.0764C122.731 27.7406 123.612 27.6501 124.463 27.8163C125.314 27.9826 126.096 28.3982 126.71 29.0104C127.325 29.6226 127.744 30.4039 127.914 31.255C128.085 32.1062 127.999 32.9889 127.668 33.7912C127.337 34.5935 126.776 35.2793 126.055 35.7616C125.335 36.2438 124.487 36.5009 123.62 36.5C122.467 36.4954 121.361 36.0359 120.543 35.2209C119.725 34.406 119.26 33.3011 119.25 32.1455Z" fill="white"/>
<path d="M16.9146 24.8957V3.02038H23.2173V36.0257H17.0876V33.2758H17.0084C14.993 36.243 11.7332 36.4412 10.2924 36.4412C4.02932 36.4412 0 31.0193 0 25.182C0 19.6999 4.1627 13.9624 10.4024 13.9624C11.3614 13.9646 12.3141 14.1181 13.2254 14.4176L13.3001 14.4425C13.5126 14.5114 13.7163 14.605 13.9069 14.7215C13.9233 14.7324 13.9396 14.7431 13.9558 14.7538C13.9962 14.7803 14.0362 14.8067 14.077 14.836C14.5391 15.1675 14.8836 15.638 15.0605 16.179C15.2374 16.7201 15.2374 17.3036 15.0606 17.8447C14.8837 18.3858 14.5392 18.8563 14.0771 19.1878C13.615 19.5193 13.0594 19.6946 12.491 19.6882L11.7582 19.6809C8.79444 19.6809 6.40528 21.8948 6.40528 25.1805C6.40528 28.4662 8.79443 30.7022 11.7376 30.7022C14.9857 30.7022 17.0202 28.2093 16.9146 24.8957Z" fill="white"/>
</svg>
