<?xml version="1.0" encoding="UTF-8" standalone="no"?>
<!-- Created with Inkscape (http://www.inkscape.org/) -->

<svg
   version="1.1"
   id="svg11310"
   width="3122.2136"
   height="904.60266"
   viewBox="0 0 3122.2137 904.60268"
   sodipodi:docname="signature.svg"
   inkscape:version="1.2.2 (b0a8486, 2022-12-01)"
   xmlns:inkscape="http://www.inkscape.org/namespaces/inkscape"
   xmlns:sodipodi="http://sodipodi.sourceforge.net/DTD/sodipodi-0.dtd"
   xmlns="http://www.w3.org/2000/svg"
   xmlns:svg="http://www.w3.org/2000/svg">
  <defs
     id="defs11314">
    <clipPath
       clipPathUnits="userSpaceOnUse"
       id="clipPath11338">
      <path
         d="M 0,0 H 2560 V 1600 H 0 Z"
         id="path11336" />
    </clipPath>
    <clipPath
       clipPathUnits="userSpaceOnUse"
       id="clipPath11364">
      <path
         d="M 0,678.452 H 2341.657 V 0 H 0 Z"
         id="path11362" />
    </clipPath>
    <clipPath
       clipPathUnits="userSpaceOnUse"
       id="clipPath11444">
      <path
         d="M 0,678.452 H 2341.657 V 0 H 0 Z"
         id="path11442" />
    </clipPath>
  </defs>
  <sodipodi:namedview
     id="namedview11312"
     pagecolor="#505050"
     bordercolor="#eeeeee"
     borderopacity="1"
     inkscape:showpageshadow="0"
     inkscape:pageopacity="0"
     inkscape:pagecheckerboard="0"
     inkscape:deskcolor="#505050"
     showgrid="false"
     inkscape:zoom="0.22125001"
     inkscape:cx="1647.4575"
     inkscape:cy="790.9604"
     inkscape:window-width="1920"
     inkscape:window-height="1080"
     inkscape:window-x="0"
     inkscape:window-y="0"
     inkscape:window-maximized="1"
     inkscape:current-layer="g11436">
    <inkscape:page
       x="-3.6292884e-05"
       y="0"
       id="page11354"
       width="3122.2136"
       height="904.60266" />
    <inkscape:page
       x="0"
       y="1008.3441"
       id="page11434"
       width="3122.2134"
       height="904.60266" />
  </sodipodi:namedview>
  <g
     id="g11318"
     inkscape:groupmode="layer"
     inkscape:label="Page 1"
     transform="matrix(1.3333333,0,0,-1.3333333,-6866.6664,2133.3333)" />
  <g
     id="g11330"
     inkscape:groupmode="layer"
     inkscape:label="Page 2"
     transform="matrix(1.3333333,0,0,-1.3333333,-3433.3331,2133.3333)" />
  <g
     id="g11356"
     inkscape:groupmode="layer"
     inkscape:label="Page 3"
     transform="matrix(1.3333333,0,0,-1.3333333,2.9637527e-4,904.60267)">
    <g
       id="g11358">
      <g
         id="g11360"
         clip-path="url(#clipPath11364)">
        <text
           xml:space="preserve"
           transform="matrix(1,0,0,-1,-2562.5674,-154.1753)"
           style="font-variant:normal;font-weight:100;font-stretch:normal;font-size:545.218px;font-family:'Xtreem Thin PERSONAL USE';-inkscape-font-specification:XtreemThinPERSONALUSE;writing-mode:lr-tb;fill:#1d1d1b;fill-opacity:1;fill-rule:nonzero;stroke:none"
           id="text11368"><tspan
             x="0 467.25208 592.65228 724.04993 797.10913 900.70062 1027.1913 1190.7567 1429.0172 1510.2546 1641.6523 1788.316 1890.817 2017.3077 2098.5452 2229.9429"
             y="0"
             sodipodi:role="line"
             id="tspan11366">Adrien Carbonaro</tspan></text>
        <g
           id="g11370"
           transform="translate(423.0907,337.0455)">
          <path
             d="m 0,0 17.992,222.994 v 29.987 L 13.086,238.805 C -15.266,180.279 -44.435,122.674 -74.422,65.971 -104.408,9.269 -134.123,-47.979 -163.564,-105.772 l 153.751,-0.546 z m -339.67,-104.682 168.473,-1.09 c 35.251,67.24 68.876,134.753 100.865,202.548 31.98,67.786 63.424,135.487 94.322,203.094 1.09,3.271 3.45,4.907 7.088,4.907 2.539,0 4.541,-0.912 5.998,-2.726 1.447,-1.823 2.18,-3.817 2.18,-5.998 L 25.626,147.754 C 23.445,122.674 20.992,97.866 18.266,73.332 15.539,48.797 13.086,23.989 10.904,-1.091 l -11.449,-105.227 179.922,-1.636 c 2.182,0 4.09,-0.723 5.725,-2.18 1.636,-1.449 2.454,-3.272 2.454,-5.452 0,-5.453 -2.726,-8.178 -8.179,-8.178 l -181.557,3.27 -2.726,-28.896 c -0.366,-4.361 -1.006,-11.083 -1.908,-20.173 -0.913,-9.081 -1.909,-19.168 -2.999,-30.26 -1.091,-11.083 -2.275,-22.626 -3.544,-34.621 -1.278,-11.995 -2.547,-22.806 -3.817,-32.44 -1.277,-9.627 -2.547,-17.626 -3.816,-23.99 -1.278,-6.355 -2.275,-9.542 -2.998,-9.542 -1.824,0 -2.727,1.091 -2.727,3.272 2.181,24.723 4.541,49.436 7.088,74.149 2.539,24.723 4.719,49.437 6.543,74.151 l 2.18,28.896 -159.203,2.726 c -0.733,-1.09 -1.636,-2.811 -2.727,-5.18 -1.09,-2.359 -2.273,-4.634 -3.543,-6.814 -1.278,-2.182 -2.548,-4.09 -3.816,-5.726 -1.279,-1.635 -2.096,-2.453 -2.454,-2.453 -2.181,0 -3.272,0.911 -3.272,2.727 0,2.18 1.176,5.178 3.544,8.996 2.359,3.816 4.268,6.814 5.725,8.996 l -163.565,2.725 c -1.092,0 -2.096,0.545 -3,1.636 -0.911,1.091 -1.362,2.181 -1.362,3.272 0.723,2.913 2.359,4.361 4.907,4.361"
             style="fill:#1d1d1b;fill-opacity:1;fill-rule:nonzero;stroke:none"
             id="path11372" />
        </g>
        <g
           id="g11374"
           transform="translate(517.4111,370.3033)">
          <path
             d="m 0,0 h -3.271 c -2.914,-0.732 -5.725,-2.454 -8.452,-5.18 -2.725,-2.726 -5.179,-5.546 -7.359,-8.45 l -7.634,-10.905 c -2.905,-4.004 -5.537,-7.905 -7.905,-11.722 -2.359,-3.816 -4.447,-7.726 -6.27,-11.722 l -5.998,-12.541 c -1.814,-4.003 -3.629,-8.177 -5.452,-12.54 -1.814,-4.361 -3.084,-8.909 -3.816,-13.629 l -1.636,-6.543 c -0.725,-1.457 -1.176,-3.185 -1.363,-5.18 -0.179,-2.002 -0.273,-3.544 -0.273,-4.633 0,-1.824 0.273,-3.366 0.818,-4.635 0.545,-1.278 1.908,-1.908 4.089,-1.908 l 5.452,2.726 2.726,2.181 4.907,4.361 4.363,5.452 c 2.913,3.629 5.451,7.361 7.633,11.177 2.18,3.817 4.727,7.718 7.632,11.722 l 13.085,24.535 c 2.181,3.996 4.175,8.084 5.997,12.268 1.815,4.174 3.817,8.263 5.998,12.267 L 25.08,28.896 35.439,54.522 c 5.086,13.443 9.899,26.622 14.449,39.528 4.54,12.898 9.175,26.077 13.903,39.529 l 7.633,22.354 1.09,3.816 c 0.724,2.905 2.726,4.362 5.998,4.362 1.814,0 3.356,-0.639 4.634,-1.908 1.269,-1.278 1.909,-2.82 1.909,-4.635 v -2.181 l -1.091,-2.18 c -1.823,-6.186 -3.544,-12.089 -5.18,-17.72 -1.636,-5.64 -3.365,-11.544 -5.18,-17.72 L 63.246,80.147 C 58.518,62.7 53.517,44.793 48.252,26.443 42.979,8.084 38.25,-10.274 34.076,-28.624 29.894,-46.982 26.443,-65.153 23.717,-83.145 c -2.727,-17.992 -4.089,-35.167 -4.089,-51.523 0,-2.181 0.179,-3.817 0.546,-4.908 v -2.725 l 8.178,11.449 c 14.175,20.352 27.533,41.522 40.073,63.518 12.54,21.987 24.075,43.157 34.622,63.518 0.724,0.724 1.635,1.09 2.725,1.09 1.815,0 2.726,-0.912 2.726,-2.726 l -0.545,-1.09 c -3.271,-6.186 -6.637,-12.634 -10.086,-19.355 -3.459,-6.731 -7.003,-13.18 -10.633,-19.356 L 66.517,-81.237 c -5.095,-9.09 -10.453,-18.086 -16.084,-26.988 -5.64,-8.911 -11.365,-17.532 -17.175,-25.899 l -5.997,-8.722 c -1.456,-1.816 -2.999,-3.903 -4.634,-6.271 -1.637,-2.359 -2.999,-3.544 -4.09,-3.544 -1.457,0 -2.547,1.005 -3.271,2.999 -0.733,2.002 -1.184,4.362 -1.363,7.088 -0.187,2.726 -0.272,5.367 -0.272,7.906 v 4.907 c 0,17.447 1.09,34.621 3.271,51.523 2.18,16.901 4.907,33.342 8.178,49.342 3.272,15.99 6.816,31.435 10.632,46.343 3.816,14.9 7.36,29.255 10.632,43.073 L 20.719,0 -10.359,-62.7 -17.447,-74.694 c -2.913,-4.005 -5.451,-8 -7.633,-11.995 -2.181,-4.004 -4.906,-7.82 -8.178,-11.45 l -9.814,-10.359 -6.543,-4.362 c -1.815,-1.09 -3.817,-1.636 -5.997,-1.636 h -2.181 l -4.361,3.272 c -1.45,2.539 -2.182,5.265 -2.182,8.179 0,9.447 1.457,18.809 4.361,28.077 2.914,9.27 6.092,17.626 9.542,25.08 3.458,7.447 6.816,13.81 10.087,19.083 3.272,5.265 5.451,8.809 6.542,10.632 l 7.634,11.995 c 0.732,0.724 1.456,1.636 2.18,2.726 0.733,1.09 1.457,2.181 2.181,3.271 l 4.907,5.452 c 1.09,0.725 2.088,1.636 3,2.727 0.902,1.09 2.086,1.993 3.543,2.726 l 3.816,2.18 c 0.725,0 1.449,0.086 2.182,0.273 0.723,0.179 1.447,0.273 2.18,0.273 h 1.636 C 3.084,11.45 4.907,9.626 4.907,5.998 4.907,1.994 3.271,0 0,0"
             style="fill:#1d1d1b;fill-opacity:1;fill-rule:nonzero;stroke:none"
             id="path11376" />
        </g>
        <g
           id="g11378"
           transform="translate(618.2744,364.8511)">
          <path
             d="m 0,0 38.711,65.972 0.545,1.09 c 1.09,1.814 2.904,2.726 5.452,2.726 1.814,0 3.356,-0.639 4.634,-1.908 1.269,-1.278 1.908,-2.641 1.908,-4.089 0,-0.367 -0.094,-0.639 -0.271,-0.818 -0.188,-0.188 -0.274,-0.46 -0.274,-0.818 L 41.981,39.801 17.992,-26.171 C 13.988,-37.075 10.359,-48.346 7.088,-59.974 3.816,-71.611 0.732,-82.694 -2.182,-93.232 v -1.09 c 8.725,15.266 18.623,30.165 29.715,44.707 11.084,14.534 22.985,27.985 35.712,40.346 l 23.444,22.354 6.543,5.453 2.181,1.635 c 1.091,1.091 2.36,1.636 3.816,1.636 2.181,0 3.817,-0.733 4.908,-2.181 1.09,-1.457 1.635,-2.914 1.635,-4.362 0,-1.456 -0.187,-2.547 -0.545,-3.271 h -0.545 c 0,-0.733 -0.367,-1.457 -1.09,-2.181 l -3.817,-5.998 -4.362,-8.178 -8.724,-17.447 -3.271,-8.723 c -0.732,-4.004 -1.457,-7.276 -2.181,-9.814 -0.732,-2.548 -1.091,-5.273 -1.091,-8.178 0,-2.914 1.091,-4.362 3.272,-4.362 H 85.6 c 0.357,0.358 2.81,1.542 7.359,3.544 4.541,1.993 8.809,5.359 12.813,10.086 2.906,3.629 5.904,7.36 8.997,11.177 3.083,3.817 5.903,7.719 8.45,11.723 l 4.907,8.723 c 0.724,0.724 1.448,2.181 2.181,4.362 l 2.181,3.816 c 0.724,1.449 1.635,2.181 2.726,2.181 2.539,0 3.817,-1.09 3.817,-3.271 0,-0.367 -0.094,-0.639 -0.273,-0.818 -0.188,-0.187 -0.273,-0.46 -0.273,-0.818 v -0.545 l -2.725,-3.816 -8.179,-12.541 c -2.913,-4.361 -5.997,-8.816 -9.268,-13.357 -3.272,-4.549 -6.731,-8.724 -10.36,-12.54 -3.638,-3.817 -7.548,-7.003 -11.723,-9.541 -4.182,-2.548 -8.45,-3.817 -12.812,-3.817 -2.547,0 -4.821,1.09 -6.814,3.271 -2.002,2.181 -3,5.086 -3,8.723 0,2.181 0.358,4.72 1.091,7.633 l 1.635,9.815 3.272,9.813 c 1.09,4.72 2.359,8.902 3.816,12.541 C 64.881,-22.175 47.885,-39.171 32.44,-57.521 16.986,-75.878 3.638,-95.779 -7.633,-117.221 c -0.724,-1.448 -1.637,-2.181 -2.726,-2.181 -1.449,0 -2.36,0.545 -2.727,1.635 -0.357,1.091 -0.545,1.823 -0.545,2.182 l 0.545,1.089 c 2.914,21.443 7.906,43.975 14.994,67.607 7.088,23.623 14.261,46.344 21.536,68.153 L 5.997,-3.816 C 5.265,-4.549 4.361,-4.907 3.271,-4.907 c -2.539,0 -3.816,1.091 -3.816,3.271 0,0.358 0.094,0.631 0.272,0.818 C -0.086,-0.639 0,-0.366 0,0"
             style="fill:#1d1d1b;fill-opacity:1;fill-rule:nonzero;stroke:none"
             id="path11380" />
        </g>
        <g
           id="g11382"
           transform="translate(772.0244,452.6314)">
          <path
             d="m 0,0 3.816,17.992 c 0.725,3.629 2.905,5.452 6.543,5.452 1.815,0 3.272,-0.732 4.362,-2.18 1.09,-1.457 1.635,-3.093 1.635,-4.908 V 14.721 L 10.359,-2.726 C 8.902,-5.273 7.088,-6.542 4.906,-6.542 c -3.636,0 -5.451,1.635 -5.451,4.906 0,0.724 0.178,1.27 0.545,1.636 m -9.27,-90.506 -5.451,-15.811 c -0.732,-2.914 -1.457,-5.546 -2.181,-7.907 -0.733,-2.368 -1.457,-5 -2.181,-7.905 l -8.724,-32.168 c -1.447,-6.543 -2.81,-13.178 -4.089,-19.9 -1.268,-6.73 -1.908,-13.545 -1.908,-20.445 0,-1.457 0.188,-2.727 0.546,-3.817 0.365,-1.09 0.545,-2.181 0.545,-3.271 l 1.635,1.09 4.908,5.998 20.172,26.17 20.174,26.715 c 2.18,2.905 5.264,7.539 9.268,13.903 3.995,6.355 8.085,12.719 12.267,19.083 4.175,6.355 8.086,11.901 11.723,16.629 3.629,4.72 6.176,7.088 7.632,7.088 1.45,0 2.361,-0.366 2.727,-1.091 0.357,-0.732 0.545,-1.457 0.545,-2.18 0,-1.091 -0.188,-1.823 -0.545,-2.181 l -49.07,-67.607 -19.627,-27.261 -13.086,-16.902 -4.362,-4.906 c -0.724,0 -1.089,-0.359 -1.089,-1.091 h -1.091 l -2.181,-0.545 c -1.814,0 -3.084,0.545 -3.816,1.636 -0.725,1.09 -1.45,2.002 -2.182,2.725 l -1.635,4.908 c 0,1.09 -0.086,2.265 -0.273,3.544 -0.179,1.269 -0.273,2.631 -0.273,4.088 0,6.901 0.546,13.444 1.636,19.628 1.09,6.177 2.181,12.719 3.272,19.628 l 6.543,32.713 5.451,24.535 2.181,8.178 c 0.367,3.271 2.369,4.907 5.997,4.907 1.815,0 3.357,-0.545 4.634,-1.636 1.27,-1.09 1.908,-2.547 1.908,-4.361 z"
             style="fill:#1d1d1b;fill-opacity:1;fill-rule:nonzero;stroke:none"
             id="path11384" />
        </g>
        <g
           id="g11386"
           transform="translate(827.0849,343.5875)">
          <path
             d="m 0,0 -2.727,-10.904 c -0.723,-2.913 -1.175,-5.64 -1.363,-8.178 -0.178,-2.548 -0.451,-5.273 -0.817,-8.179 0,-2.547 0.366,-5.997 1.091,-10.359 0.732,-4.361 3.091,-6.542 7.087,-6.542 l 5.998,3.27 c 3.995,2.906 7.36,6.901 10.086,11.996 2.726,5.085 4.993,10.171 6.815,15.266 l 1.091,3.817 2.725,12.54 c 0.725,2.538 1.27,5.179 1.637,7.905 0.357,2.725 0.902,5.725 1.635,8.996 l 1.091,16.356 c 0,1.449 -0.188,2.539 -0.546,3.272 l -0.545,3.271 c -0.366,0.358 -0.545,0.724 -0.545,1.091 0,0.358 -0.366,0.545 -1.09,0.545 l -3.271,-1.091 c -0.368,-0.366 -0.733,-0.545 -1.091,-0.545 -0.366,0 -0.911,-0.366 -1.636,-1.09 L 22.898,39.256 C 18.895,35.252 15.623,30.89 13.085,26.171 10.538,21.442 7.99,16.536 5.452,11.45 Z m -12.54,-35.984 -3.817,-16.901 c -1.09,-4.363 -1.993,-8.996 -2.726,-13.904 -0.724,-4.907 -1.091,-9.728 -1.091,-14.448 0,-7.275 0.819,-13.443 2.454,-18.537 1.636,-5.086 4.456,-7.634 8.45,-7.634 l 1.092,-0.545 h 0.545 c 5.094,0 10.086,1.824 14.993,5.453 4.908,3.637 9.72,7.454 14.449,11.45 l 22.353,25.625 c 6.901,9.447 13.716,18.809 20.446,28.077 6.722,9.27 12.992,18.99 18.81,29.17 l 8.724,15.266 8.178,14.721 c 0.358,1.448 1.448,2.181 3.272,2.181 2.538,0 3.816,-1.278 3.816,-3.817 0,-0.366 -0.094,-0.639 -0.273,-0.818 -0.188,-0.187 -0.272,-0.459 -0.272,-0.817 L 98.139,3.271 93.232,-4.361 88.871,-11.449 C 82.686,-21.264 76.33,-30.992 69.787,-40.618 63.245,-50.254 56.516,-59.794 49.615,-69.242 l -11.45,-13.631 c -2.548,-2.913 -5.452,-6.184 -8.724,-9.813 -3.271,-3.63 -6.814,-7.088 -10.63,-10.359 -3.818,-3.272 -7.728,-5.997 -11.723,-8.179 -4.004,-2.181 -7.991,-3.272 -11.995,-3.272 h -5.452 c -3.996,0 -6.995,1.364 -8.996,4.09 -1.995,2.726 -3.178,4.455 -3.544,5.18 l -3.272,9.268 c -1.448,3.996 -2.087,8.451 -1.908,13.358 0.187,4.907 0.272,9.542 0.272,13.903 1.457,14.9 3.911,29.527 7.362,43.889 3.458,14.355 8.271,28.258 14.447,41.71 l 4.362,8.178 c 0.733,2.539 1.993,5.18 3.817,7.906 1.814,2.726 3.629,5.358 5.452,7.906 l 9.814,10.359 c 1.09,1.814 2.998,3.271 5.725,4.361 2.725,1.091 5.358,1.636 7.905,1.636 l 3.817,-0.545 C 42.885,54.156 46.889,47.247 46.889,35.984 47.246,26.895 46.344,18.989 44.162,12.268 41.981,5.537 39.801,-1.277 37.619,-8.178 l -2.18,-6.543 -1.09,-1.635 C 31.436,-24.355 27.619,-31.443 22.898,-37.62 18.171,-43.805 11.807,-48.166 3.816,-50.705 l -5.998,1.091 -2.725,1.635 -1.636,2.181 c -2.181,3.272 -3.45,6.176 -3.816,8.724 -0.358,2.538 -0.545,4.906 -0.545,7.088 z"
             style="fill:#1d1d1b;fill-opacity:1;fill-rule:nonzero;stroke:none"
             id="path11388" />
        </g>
        <g
           id="g11390"
           transform="translate(945.3896,385.5694)">
          <path
             d="m 0,0 -43.617,-107.407 -3.272,-7.633 8.179,10.358 9.814,13.086 21.263,25.625 c 5.086,6.176 10.446,12.54 16.084,19.082 5.631,6.543 11.535,12.54 17.72,17.993 l 6.542,5.997 c 0.358,0.724 0.818,1.175 1.363,1.363 0.546,0.179 1.176,0.63 1.908,1.363 l 2.727,1.09 0.545,0.546 h 1.637 c 0.357,0.357 0.902,0.545 1.634,0.545 l 1.091,-0.545 h 0.545 c 1.448,0 2.632,-0.639 3.544,-1.909 0.903,-1.278 1.721,-2.64 2.453,-4.089 l 1.091,-4.907 c 0.358,-1.823 0.63,-3.365 0.817,-4.634 0.18,-1.278 0.274,-2.641 0.274,-4.09 0,-10.545 -0.461,-20.445 -1.363,-29.713 -0.913,-9.269 -1.364,-18.631 -1.364,-28.079 0,-1.823 0.18,-3.638 0.545,-5.452 0.359,-1.823 0.725,-3.638 1.091,-5.452 v -0.545 l 4.362,3.271 9.814,12.54 c 1.814,2.18 3.356,4.446 4.634,6.814 1.269,2.361 2.632,4.635 4.089,6.816 l 9.269,14.175 c 1.448,2.181 3.45,5.811 5.997,10.905 2.539,5.086 5.18,10.087 7.906,14.993 2.726,4.907 5.265,9.268 7.633,13.086 2.359,3.816 4.268,5.724 5.725,5.724 2.181,0 3.271,-1.277 3.271,-3.816 V -23.99 L 97.049,-52.886 C 92.687,-60.162 88.505,-67.428 84.51,-74.695 80.506,-81.97 75.965,-88.871 70.879,-95.413 l -4.907,-6.542 c -1.824,-2.181 -3.638,-4.183 -5.452,-5.998 -1.823,-1.822 -2.914,-3.092 -3.272,-3.817 l -2.726,-1.635 c -0.366,0 -0.817,-0.187 -1.363,-0.545 -0.545,-0.366 -1.184,-0.545 -1.908,-0.545 -2.913,0 -4.821,0.996 -5.725,2.999 -0.911,1.993 -1.363,3.356 -1.363,4.089 l -1.091,2.18 c -0.732,2.906 -1.09,5.81 -1.09,8.724 v 8.723 16.357 c 0,2.905 0.085,5.631 0.273,8.177 0.179,2.539 0.272,5.266 0.272,8.179 v 8.178 c 0,2.905 -0.187,5.81 -0.545,8.723 -0.366,2.906 -0.732,5.632 -1.089,8.179 l -7.634,-6.543 -11.45,-11.449 c -13.452,-13.818 -26.63,-27.994 -39.528,-42.527 -12.898,-14.542 -24.807,-29.441 -35.712,-44.708 l -7.088,-9.813 -1.09,-2.181 c -0.725,-0.725 -1.09,-1.363 -1.09,-1.908 0,-0.546 -0.545,-1.176 -1.637,-1.908 l -0.545,-0.546 c -0.723,0 -1.176,-0.085 -1.363,-0.273 -0.178,-0.178 -0.63,-0.272 -1.362,-0.272 -0.724,0 -1.449,0.272 -2.181,0.817 -0.725,0.546 -1.091,1.363 -1.091,2.454 l 0.546,1.09 v 1.091 l 0.545,1.636 0.545,0.545 3.816,5.997 2.182,3.817 c 1.09,2.538 2.18,4.992 3.27,7.36 1.091,2.36 2.002,4.813 2.726,7.361 l 11.996,31.076 c 2.18,5.811 5.094,14.176 8.723,25.08 3.637,10.905 7.361,21.715 11.177,32.441 3.817,10.717 7.547,20.079 11.176,28.079 3.63,7.991 6.543,11.995 8.725,11.995 1.814,0 3.271,-0.64 4.361,-1.909 C 0,5.538 0.546,4.174 0.546,2.726 0.546,0.903 0.358,0 0,0"
             style="fill:#1d1d1b;fill-opacity:1;fill-rule:nonzero;stroke:none"
             id="path11392" />
        </g>
        <g
           id="g11394"
           transform="translate(1455.161,513.1505)">
          <path
             d="m 0,0 c -2.182,5.452 -4.551,9.993 -7.088,13.63 l -3.816,6.543 c -3.639,7.267 -8.639,13.443 -14.994,18.537 -6.364,5.086 -13.274,9.269 -20.719,12.54 -7.453,3.272 -15.088,5.726 -22.899,7.361 -7.82,1.636 -14.994,2.453 -21.537,2.453 -16.355,0 -32.168,-2.913 -47.433,-8.723 -15.266,-5.819 -29.629,-13.085 -43.073,-21.809 -13.451,-8.723 -25.625,-18.086 -36.529,-28.078 -10.904,-10.002 -19.994,-19.356 -27.262,-28.079 -10.904,-12.728 -20.632,-26.085 -29.168,-40.074 -8.544,-13.996 -15.812,-28.172 -21.809,-42.527 -5.997,-14.363 -10.726,-28.811 -14.176,-43.345 -3.458,-14.542 -5.546,-28.351 -6.27,-41.436 0,-15.632 1.449,-31.264 4.362,-46.889 2.905,-15.632 8.724,-30.344 17.447,-44.163 8.724,-13.808 20.898,-26.348 36.529,-37.619 15.624,-11.262 36.164,-20.352 61.611,-27.261 11.628,-2.905 23.529,-5.086 35.711,-6.542 12.174,-1.449 24.262,-2.182 36.258,-2.182 19.985,0 39.433,1.363 58.337,4.09 18.895,2.725 37.434,6.091 55.614,10.086 l 29.986,7.633 c 9.814,2.547 19.713,5.546 29.715,8.997 9.992,3.458 20.078,6.814 30.26,10.086 h 1.089 c 2.54,0 3.817,-1.27 3.817,-3.817 0,-1.814 -2.727,-3.816 -8.178,-5.997 -5.453,-2.181 -11.722,-4.269 -18.81,-6.27 -7.088,-1.994 -14.176,-3.817 -21.264,-5.453 -7.088,-1.635 -12.088,-2.998 -14.994,-4.088 -10.904,-3.629 -22.447,-6.722 -34.621,-9.269 -12.182,-2.539 -24.535,-4.72 -37.075,-6.543 -12.541,-1.814 -24.807,-3.178 -36.802,-4.089 -11.994,-0.903 -23.445,-1.363 -34.349,-1.363 -14.542,0 -29.714,0.912 -45.525,2.726 -15.812,1.823 -31.265,5.094 -46.344,9.814 -15.087,4.728 -29.442,11.177 -43.072,19.355 -13.63,8.178 -25.626,18.631 -35.985,31.35 -10.359,12.728 -18.538,27.994 -24.534,45.799 -5.998,17.804 -8.996,38.522 -8.996,62.154 1.815,36.342 10.171,70.691 25.079,103.046 14.9,32.347 33.531,60.605 55.886,84.782 22.353,24.168 47.066,43.617 74.148,58.338 27.075,14.721 53.883,22.627 80.42,23.717 10.905,0 21.621,-1.457 32.168,-4.361 10.539,-2.914 20.258,-7.361 29.17,-13.358 C -20.812,53.704 -13.086,45.978 -6.543,36.53 0,27.074 4.719,15.812 7.633,2.726 7.633,-0.545 6.176,-2.181 3.27,-2.181 1.447,-2.181 0.357,-1.457 0,0"
             style="fill:#1d1d1b;fill-opacity:1;fill-rule:nonzero;stroke:none"
             id="path11396" />
        </g>
        <g
           id="g11398"
           transform="translate(1393.5497,391.567)">
          <path
             d="m 0,0 h -0.547 c 0,-0.366 -0.365,-0.545 -1.09,-0.545 l -4.906,-2.726 c -3.271,-2.914 -6.27,-5.546 -8.996,-7.906 -2.727,-2.368 -5.547,-5.367 -8.451,-8.996 l -9.815,-13.085 c -5.086,-7.275 -9.174,-14.721 -12.267,-22.354 -3.084,-7.633 -6.627,-15.453 -10.631,-23.445 l -5.453,-16.356 c -2.18,-6.184 -3.629,-12.182 -4.362,-17.992 -0.724,-5.818 -1.269,-10.904 -1.635,-15.266 0,-2.547 0.366,-5 1.09,-7.361 0.733,-2.368 1.823,-3.544 3.272,-3.544 h 1.635 c 0,0.359 0.546,0.546 1.636,0.546 l 2.726,2.181 c 1.456,1.09 3.272,3.084 5.452,5.997 l 4.906,6.543 4.909,7.633 8.177,14.72 7.088,15.811 c 1.815,3.996 3.629,8.179 5.452,12.541 1.815,4.361 3.084,8.177 3.817,11.449 l 1.636,4.362 c 0,1.814 0.63,3.544 1.908,5.18 1.269,1.635 2.811,2.453 4.635,2.453 3.628,0 5.451,-2.002 5.451,-5.997 v -0.546 l -2.18,-15.811 c -0.732,-5.452 -1.278,-10.725 -1.637,-15.811 -0.365,-5.095 -0.545,-10.547 -0.545,-16.356 v -4.907 l 1.636,2.725 c 2.538,5.086 5.538,10.717 8.997,16.902 3.449,6.176 6.994,12.353 10.631,18.537 l 28.352,45.799 c 0.357,1.09 1.269,1.635 2.726,1.635 2.539,0 3.817,-1.278 3.817,-3.816 0,-1.09 -0.545,-2.726 -1.637,-4.907 -1.09,-2.181 -2.453,-4.456 -4.088,-6.815 -1.637,-2.368 -3.271,-4.729 -4.908,-7.088 -1.635,-2.368 -2.998,-4.277 -4.088,-5.725 -6.186,-9.09 -12.184,-18.81 -17.992,-29.169 -5.819,-10.359 -10.905,-19.901 -15.268,-28.623 l -5.996,-11.995 c -0.367,-1.457 -1.637,-2.181 -3.816,-2.181 -2.548,0 -4.278,1.814 -5.18,5.452 -0.912,3.629 -1.551,7.812 -1.908,12.54 -0.367,5.086 -0.367,11.083 0,17.992 0,0.723 0.084,1.448 0.271,2.18 0.18,0.724 0.274,1.449 0.274,2.181 l -3.272,-5.997 -4.361,-7.088 -8.179,-15.811 -4.362,-7.088 c -3.272,-5.452 -6.721,-10.359 -10.36,-14.72 -3.628,-4.362 -7.086,-7.446 -10.358,-9.269 l -2.726,-1.091 c -0.358,-0.357 -0.903,-0.545 -1.636,-0.545 h -1.635 c -1.449,0 -2.539,0.188 -3.272,0.545 l -2.181,2.181 c -1.815,0.733 -2.998,2.088 -3.543,4.09 -0.545,1.993 -0.818,3.722 -0.818,5.179 l -0.545,4.907 c 0,13.086 2.002,26.171 5.997,39.255 4.004,13.085 8.638,25.259 13.903,36.529 5.273,11.263 10.547,20.991 15.811,29.17 5.265,8.178 9.175,13.903 11.722,17.175 3.272,3.995 6.722,7.539 10.36,10.631 3.628,3.084 6.9,5.537 9.814,7.361 l 1.09,0.545 c 0.724,0.358 1.814,0.545 3.271,0.545 1.448,0 2.905,-0.545 4.362,-1.636 C 3.629,9.814 4.361,8.178 4.361,5.998 4.361,4.907 3.994,3.629 3.27,2.181 2.537,0.724 1.447,0 0,0"
             style="fill:#1d1d1b;fill-opacity:1;fill-rule:nonzero;stroke:none"
             id="path11400" />
        </g>
        <g
           id="g11402"
           transform="translate(1433.8876,364.8511)">
          <path
             d="m 0,0 38.711,65.972 0.545,1.09 c 1.09,1.814 2.904,2.726 5.453,2.726 1.814,0 3.355,-0.639 4.633,-1.908 1.269,-1.278 1.908,-2.641 1.908,-4.089 0,-0.367 -0.094,-0.639 -0.271,-0.818 -0.188,-0.188 -0.274,-0.46 -0.274,-0.818 L 41.982,39.801 17.992,-26.171 C 13.988,-37.075 10.359,-48.346 7.088,-59.974 3.816,-71.611 0.732,-82.694 -2.18,-93.232 v -1.09 c 8.723,15.266 18.621,30.165 29.713,44.707 11.084,14.534 22.985,27.985 35.713,40.346 l 23.443,22.354 6.543,5.453 2.182,1.635 c 1.09,1.091 2.359,1.636 3.816,1.636 2.18,0 3.817,-0.733 4.907,-2.181 1.09,-1.457 1.636,-2.914 1.636,-4.362 0,-1.456 -0.187,-2.547 -0.546,-3.271 h -0.545 c 0,-0.733 -0.366,-1.457 -1.09,-2.181 l -3.817,-5.998 -4.361,-8.178 -8.725,-17.447 -3.271,-8.723 c -0.732,-4.004 -1.455,-7.276 -2.18,-9.814 -0.732,-2.548 -1.092,-5.273 -1.092,-8.178 0,-2.914 1.092,-4.362 3.272,-4.362 H 85.6 c 0.357,0.358 2.81,1.542 7.361,3.544 4.539,1.993 8.809,5.359 12.812,10.086 2.905,3.629 5.903,7.36 8.997,11.177 3.084,3.817 5.902,7.719 8.449,11.723 l 4.908,8.723 c 0.725,0.724 1.447,2.181 2.18,4.362 l 2.181,3.816 c 0.725,1.449 1.637,2.181 2.727,2.181 2.539,0 3.816,-1.09 3.816,-3.271 0,-0.367 -0.094,-0.639 -0.273,-0.818 -0.188,-0.187 -0.272,-0.46 -0.272,-0.818 v -0.545 l -2.726,-3.816 -8.178,-12.541 c -2.914,-4.361 -5.998,-8.816 -9.269,-13.357 -3.272,-4.549 -6.731,-8.724 -10.36,-12.54 -3.637,-3.817 -7.547,-7.003 -11.723,-9.541 -4.181,-2.548 -8.449,-3.817 -12.812,-3.817 -2.547,0 -4.82,1.09 -6.814,3.271 -2.002,2.181 -2.999,5.086 -2.999,8.723 0,2.181 0.358,4.72 1.09,7.633 l 1.635,9.815 3.272,9.813 c 1.091,4.72 2.361,8.902 3.816,12.541 -18.537,-15.633 -35.531,-32.629 -50.977,-50.979 -15.453,-18.357 -28.802,-38.258 -40.074,-59.7 -0.724,-1.448 -1.635,-2.181 -2.726,-2.181 -1.448,0 -2.36,0.545 -2.725,1.635 -0.359,1.091 -0.547,1.823 -0.547,2.182 l 0.547,1.089 c 2.912,21.443 7.904,43.975 14.992,67.607 7.088,23.623 14.262,46.344 21.537,68.153 L 5.998,-3.816 C 5.266,-4.549 4.361,-4.907 3.271,-4.907 c -2.539,0 -3.816,1.091 -3.816,3.271 0,0.358 0.094,0.631 0.274,0.818 C -0.084,-0.639 0,-0.366 0,0"
             style="fill:#1d1d1b;fill-opacity:1;fill-rule:nonzero;stroke:none"
             id="path11404" />
        </g>
        <g
           id="g11406"
           transform="translate(1565.829,364.8511)">
          <path
             d="m 0,0 81.236,137.94 1.092,1.091 c 1.09,2.18 2.727,3.271 4.906,3.271 1.815,0 3.452,-0.639 4.907,-1.908 1.449,-1.278 2.181,-2.82 2.181,-4.635 0,-0.366 -0.093,-0.732 -0.271,-1.09 -0.188,-0.366 -0.274,-0.732 -0.274,-1.09 L 87.234,116.677 69.242,67.062 C 60.877,44.163 53.158,21.536 46.07,-0.818 38.982,-23.172 32.525,-45.619 26.715,-68.152 l -11.449,-43.617 4.906,10.904 16.357,34.348 c 4.362,8.358 8.358,16.988 11.994,25.898 3.629,8.902 7.813,17.532 12.541,25.898 l 4.907,8.723 8.724,12.54 4.362,3.817 4.906,3.271 3.271,1.091 c 0.358,0 0.725,0.085 1.09,0.273 0.36,0.178 0.725,0.272 1.092,0.272 h 3.272 l 3.271,-2.181 2.18,-1.635 1.09,-2.181 c 0,-0.733 0.179,-1.363 0.546,-1.909 0.358,-0.545 0.545,-1.55 0.545,-2.998 l 0.545,-2.726 v -3.817 c 0,-10.18 -1.183,-20.088 -3.545,-29.715 -2.367,-9.634 -5.179,-18.997 -8.449,-28.078 l 33.258,33.803 25.625,26.716 c 0.725,0.725 1.447,1.091 2.182,1.091 2.179,0 3.269,-1.278 3.269,-3.817 0,-0.733 -0.185,-1.277 -0.545,-1.635 L 101.41,-56.703 80.691,-76.875 77.42,-82.873 c -4.004,-7.632 -9.268,-13.818 -15.811,-18.537 -6.543,-4.728 -12.361,-6.909 -17.447,-6.543 -1.09,0 -2.002,0.904 -2.726,2.726 0,1.091 0.998,2.727 3,4.907 1.992,2.181 4.447,4.447 7.359,6.816 2.906,2.359 5.81,4.719 8.725,7.087 2.904,2.36 5.263,4.448 7.087,6.27 l 1.09,2.182 4.362,8.177 9.269,25.625 c 0.725,2.905 1.447,5.904 2.18,8.996 0.724,3.084 1.449,6.083 2.181,8.996 l 2.182,17.993 V 2.181 c -0.734,0 -1.457,-0.367 -2.182,-1.091 L 80.691,-4.907 70.879,-19.628 C 62.154,-34.17 54.248,-48.252 47.16,-61.882 40.072,-75.512 32.893,-89.237 25.625,-103.045 L 9.268,-137.394 c -0.733,-1.448 -1.635,-2.182 -2.725,-2.182 -2.182,0 -3.272,1.457 -3.272,4.363 6.543,35.252 14.721,69.693 24.536,103.317 9.812,33.617 19.984,67.693 30.531,102.229 L 63.244,86.145 5.451,-3.271 C 4.719,-4.362 3.816,-4.907 2.727,-4.907 c -2.182,0 -3.272,1.091 -3.272,3.271 0,0.724 0.188,1.27 0.545,1.636"
             style="fill:#1d1d1b;fill-opacity:1;fill-rule:nonzero;stroke:none"
             id="path11408" />
        </g>
        <g
           id="g11410"
           transform="translate(1738.1161,373.5748)">
          <path
             d="m 0,0 c -2.914,-0.733 -5.998,-2.547 -9.27,-5.452 -3.271,-2.914 -5.996,-5.998 -8.177,-9.269 l -4.907,-7.088 c -8.357,-11.995 -14.806,-24.535 -19.355,-37.62 -4.541,-13.085 -6.629,-23.989 -6.27,-32.712 0,-3.272 0.545,-6.731 1.635,-10.359 1.09,-3.638 4.004,-5.453 8.725,-5.453 h 1.635 c 3.636,0 7.002,1.09 10.086,3.272 3.093,2.181 5.81,4.634 8.179,7.36 2.36,2.726 4.268,5.452 5.725,8.178 1.447,2.726 2.537,4.635 3.271,5.725 2.905,4.361 5.264,9.081 7.088,14.175 1.815,5.086 3.449,10.172 4.906,15.266 v 1.09 c -1.824,4.363 -2.914,9.27 -3.271,14.722 -0.367,5.452 -0.545,10.904 -0.545,16.356 0,3.629 0.178,7.088 0.545,10.359 0.357,3.272 0.902,6.722 1.635,10.36 v 0.545 c 0,0.358 0.086,0.63 0.273,0.817 0.18,0.18 0.274,0.452 0.274,0.818 z m 14.721,-58.339 c 2.181,-2.913 4.174,-4.727 5.998,-5.452 l 3.271,-1.09 c 6.901,0 13.358,2.998 19.356,8.996 5.996,5.997 11.449,12.719 16.355,20.173 4.906,7.445 9.082,14.176 12.541,20.173 3.449,5.997 6.082,8.997 7.904,8.997 2.182,0 3.272,-1.091 3.272,-3.272 0,-0.733 -0.188,-1.278 -0.545,-1.636 l -9.814,-17.446 c -3.272,-4.363 -6.729,-9.09 -10.36,-14.176 -3.636,-5.095 -7.453,-9.815 -11.449,-14.176 -4.004,-4.361 -8.365,-7.905 -13.084,-10.632 -4.728,-2.725 -9.637,-4.089 -14.721,-4.089 -2.549,0 -5.367,0.904 -8.451,2.726 -3.094,1.814 -5.002,3.63 -5.724,5.452 l -3.272,-7.088 c -2.182,-4.727 -4.728,-9.635 -7.633,-14.72 -2.914,-5.094 -6.092,-9.814 -9.543,-14.176 -3.459,-4.361 -7.181,-7.905 -11.176,-10.632 -3.996,-2.725 -8.357,-4.089 -13.085,-4.089 h -2.727 c -1.814,0 -3.449,0.359 -4.906,1.091 -1.449,0.724 -3.084,1.448 -4.907,2.181 l -5.453,9.268 c -0.724,2.181 -1.175,4.363 -1.363,6.543 -0.178,2.181 -0.271,4.174 -0.271,5.997 0,7.991 1.183,16.084 3.543,24.263 2.369,8.177 5,15.538 7.906,22.081 2.914,6.543 5.638,12.174 8.178,16.901 2.546,4.72 4.361,7.813 5.453,9.27 l 4.906,7.632 c 3.629,5.453 7.99,10.538 13.086,15.266 5.086,4.72 10.537,7.088 16.355,7.088 0.725,0 1.27,-0.187 1.637,-0.545 h 1.635 c 3.271,-1.09 4.906,-3.271 4.906,-6.543 v -1.09 l -1.09,-2.181 1.09,-1.09 c 3.272,-3.272 5.18,-6.73 5.727,-10.36 0.545,-3.637 0.816,-6.908 0.816,-9.813 0,-4.004 -0.187,-7.361 -0.545,-10.087 -0.365,-2.727 -0.912,-5.546 -1.635,-8.451 l -2.181,-8.724 c -0.366,-1.822 -0.733,-3.27 -1.09,-4.361 -0.367,-1.091 -0.733,-2.368 -1.092,-3.817 z"
             style="fill:#1d1d1b;fill-opacity:1;fill-rule:nonzero;stroke:none"
             id="path11412" />
        </g>
        <g
           id="g11414"
           transform="translate(1833.5223,385.5694)">
          <path
             d="m 0,0 -43.617,-107.407 -3.272,-7.633 8.18,10.358 9.813,13.086 21.263,25.625 c 5.086,6.176 10.446,12.54 16.084,19.082 5.631,6.543 11.535,12.54 17.721,17.993 l 6.543,5.997 c 0.357,0.724 0.816,1.175 1.361,1.363 0.547,0.179 1.176,0.63 1.91,1.363 l 2.725,1.09 0.545,0.546 h 1.637 c 0.357,0.357 0.902,0.545 1.634,0.545 l 1.092,-0.545 h 0.545 c 1.447,0 2.633,-0.639 3.543,-1.909 0.904,-1.278 1.721,-2.64 2.453,-4.089 l 1.092,-4.907 c 0.357,-1.823 0.631,-3.365 0.816,-4.634 0.18,-1.278 0.274,-2.641 0.274,-4.09 0,-10.545 -0.459,-20.445 -1.363,-29.713 -0.913,-9.269 -1.364,-18.631 -1.364,-28.079 0,-1.823 0.18,-3.638 0.545,-5.452 0.36,-1.823 0.725,-3.638 1.092,-5.452 v -0.545 l 4.361,3.271 9.815,12.54 c 1.814,2.18 3.355,4.446 4.635,6.814 1.267,2.361 2.63,4.635 4.087,6.816 l 9.27,14.175 c 1.447,2.181 3.449,5.811 5.996,10.905 2.539,5.086 5.18,10.087 7.906,14.993 2.727,4.907 5.266,9.268 7.633,13.086 2.359,3.816 4.268,5.724 5.725,5.724 2.181,0 3.271,-1.277 3.271,-3.816 v -1.091 l -16.9,-28.896 C 92.688,-60.162 88.506,-67.428 84.51,-74.695 80.506,-81.97 75.965,-88.871 70.879,-95.413 l -4.906,-6.542 c -1.825,-2.181 -3.639,-4.183 -5.453,-5.998 -1.823,-1.822 -2.913,-3.092 -3.272,-3.817 l -2.725,-1.635 c -0.367,0 -0.818,-0.187 -1.363,-0.545 -0.545,-0.366 -1.183,-0.545 -1.908,-0.545 -2.914,0 -4.822,0.996 -5.725,2.999 -0.912,1.993 -1.363,3.356 -1.363,4.089 l -1.092,2.18 c -0.732,2.906 -1.09,5.81 -1.09,8.724 v 8.723 16.357 c 0,2.905 0.086,5.631 0.274,8.177 0.178,2.539 0.271,5.266 0.271,8.179 v 8.178 c 0,2.905 -0.187,5.81 -0.545,8.723 -0.365,2.906 -0.732,5.632 -1.089,8.179 L 33.26,-36.53 21.811,-47.979 C 8.357,-61.797 -4.82,-75.973 -17.719,-90.506 c -12.898,-14.542 -24.806,-29.441 -35.711,-44.708 l -7.088,-9.813 -1.091,-2.181 c -0.723,-0.725 -1.09,-1.363 -1.09,-1.908 0,-0.546 -0.545,-1.176 -1.635,-1.908 l -0.547,-0.546 c -0.723,0 -1.174,-0.085 -1.361,-0.273 -0.18,-0.178 -0.631,-0.272 -1.363,-0.272 -0.725,0 -1.45,0.272 -2.182,0.817 -0.725,0.546 -1.09,1.363 -1.09,2.454 l 0.545,1.09 v 1.091 l 0.545,1.636 0.545,0.545 3.816,5.997 2.182,3.817 c 1.09,2.538 2.18,4.992 3.271,7.36 1.09,2.36 2.002,4.813 2.727,7.361 l 11.994,31.076 c 2.182,5.811 5.094,14.176 8.723,25.08 3.638,10.905 7.361,21.715 11.177,32.441 3.817,10.717 7.547,20.079 11.178,28.079 3.629,7.991 6.541,11.995 8.723,11.995 1.814,0 3.271,-0.64 4.361,-1.909 C 0,5.538 0.547,4.174 0.547,2.726 0.547,0.903 0.359,0 0,0"
             style="fill:#1d1d1b;fill-opacity:1;fill-rule:nonzero;stroke:none"
             id="path11416" />
        </g>
        <g
           id="g11418"
           transform="translate(1981.8192,391.567)">
          <path
             d="m 0,0 h -0.545 c 0,-0.366 -0.367,-0.545 -1.09,-0.545 l -4.908,-2.726 c -3.271,-2.914 -6.27,-5.546 -8.996,-7.906 -2.727,-2.368 -5.545,-5.367 -8.451,-8.996 l -9.813,-13.085 c -5.086,-7.275 -9.176,-14.721 -12.267,-22.354 -3.084,-7.633 -6.629,-15.453 -10.633,-23.445 l -5.451,-16.356 c -2.182,-6.184 -3.629,-12.182 -4.362,-17.992 -0.724,-5.818 -1.269,-10.904 -1.636,-15.266 0,-2.547 0.367,-5 1.089,-7.361 0.735,-2.368 1.825,-3.544 3.272,-3.544 h 1.637 c 0,0.359 0.545,0.546 1.634,0.546 l 2.727,2.181 c 1.457,1.09 3.272,3.084 5.453,5.997 l 4.906,6.543 4.907,7.633 8.179,14.72 7.086,15.811 c 1.817,3.996 3.631,8.179 5.453,12.541 1.815,4.361 3.084,8.177 3.817,11.449 l 1.637,4.362 c 0,1.814 0.628,3.544 1.908,5.18 1.267,1.635 2.81,2.453 4.633,2.453 3.628,0 5.453,-2.002 5.453,-5.997 v -0.546 l -2.182,-15.811 c -0.732,-5.452 -1.277,-10.725 -1.635,-15.811 -0.367,-5.095 -0.545,-10.547 -0.545,-16.356 v -4.907 l 1.635,2.725 c 2.539,5.086 5.537,10.717 8.996,16.902 3.451,6.176 6.994,12.353 10.633,18.537 l 28.35,45.799 c 0.359,1.09 1.269,1.635 2.726,1.635 2.539,0 3.817,-1.278 3.817,-3.816 0,-1.09 -0.545,-2.726 -1.635,-4.907 -1.09,-2.181 -2.453,-4.456 -4.09,-6.815 -1.635,-2.368 -3.271,-4.729 -4.906,-7.088 -1.637,-2.368 -3,-4.277 -4.09,-5.725 -6.184,-9.09 -12.182,-18.81 -17.992,-29.169 -5.819,-10.359 -10.905,-19.901 -15.266,-28.623 l -5.998,-11.995 c -0.365,-1.457 -1.635,-2.181 -3.816,-2.181 -2.547,0 -4.276,1.814 -5.18,5.452 -0.91,3.629 -1.551,7.812 -1.908,12.54 -0.365,5.086 -0.365,11.083 0,17.992 0,0.723 0.086,1.448 0.273,2.18 0.178,0.724 0.272,1.449 0.272,2.181 l -3.272,-5.997 -4.361,-7.088 -8.178,-15.811 -4.361,-7.088 c -3.272,-5.452 -6.723,-10.359 -10.36,-14.72 -3.629,-4.362 -7.087,-7.446 -10.359,-9.269 l -2.727,-1.091 c -0.357,-0.357 -0.902,-0.545 -1.634,-0.545 h -1.637 c -1.447,0 -2.537,0.188 -3.272,0.545 l -2.179,2.181 c -1.815,0.733 -3,2.088 -3.545,4.09 -0.545,1.993 -0.817,3.722 -0.817,5.179 l -0.546,4.907 c 0,13.086 2.002,26.171 5.998,39.255 4.004,13.085 8.638,25.259 13.902,36.529 5.273,11.263 10.547,20.991 15.812,29.17 5.264,8.178 9.174,13.903 11.723,17.175 3.272,3.995 6.721,7.539 10.36,10.631 3.628,3.084 6.9,5.537 9.812,7.361 l 1.092,0.545 c 0.722,0.358 1.814,0.545 3.269,0.545 1.45,0 2.907,-0.545 4.364,-1.636 C 3.629,9.814 4.361,8.178 4.361,5.998 4.361,4.907 3.996,3.629 3.271,2.181 2.539,0.724 1.449,0 0,0"
             style="fill:#1d1d1b;fill-opacity:1;fill-rule:nonzero;stroke:none"
             id="path11420" />
        </g>
        <g
           id="g11422"
           transform="translate(2022.1591,364.8511)">
          <path
             d="m 0,0 38.709,65.972 0.547,1.09 c 1.09,1.814 2.904,2.726 5.451,2.726 1.815,0 3.358,-0.639 4.635,-1.908 1.269,-1.278 1.908,-2.641 1.908,-4.089 0,-0.367 -0.094,-0.639 -0.273,-0.818 -0.188,-0.188 -0.272,-0.46 -0.272,-0.818 L 41.981,39.801 17.992,-26.171 C 13.988,-37.075 10.359,-48.346 7.088,-59.974 3.816,-71.611 0.732,-82.694 -2.182,-93.232 v -1.09 c 8.725,15.266 18.623,30.165 29.715,44.707 11.082,14.534 22.985,27.985 35.711,40.346 l 23.446,22.354 6.543,5.453 2.179,1.635 c 1.092,1.091 2.36,1.636 3.817,1.636 2.181,0 3.816,-0.733 4.908,-2.181 1.09,-1.457 1.635,-2.914 1.635,-4.362 0,-1.456 -0.188,-2.547 -0.545,-3.271 h -0.545 c 0,-0.733 -0.367,-1.457 -1.09,-2.181 L 99.774,3.816 95.412,-4.362 86.69,-21.809 83.418,-30.532 c -0.732,-4.004 -1.457,-7.276 -2.182,-9.814 -0.732,-2.548 -1.089,-5.273 -1.089,-8.178 0,-2.914 1.089,-4.362 3.271,-4.362 H 85.6 c 0.357,0.358 2.81,1.542 7.359,3.544 4.541,1.993 8.809,5.359 12.813,10.086 2.904,3.629 5.904,7.36 8.996,11.177 3.084,3.817 5.904,7.719 8.451,11.723 l 4.906,8.723 c 0.725,0.724 1.449,2.181 2.182,4.362 l 2.181,3.816 c 0.723,1.449 1.635,2.181 2.725,2.181 2.539,0 3.816,-1.09 3.816,-3.271 0,-0.367 -0.093,-0.639 -0.271,-0.818 -0.188,-0.187 -0.274,-0.46 -0.274,-0.818 v -0.545 l -2.726,-3.816 -8.178,-12.541 c -2.914,-4.361 -5.996,-8.816 -9.267,-13.357 -3.272,-4.549 -6.731,-8.724 -10.36,-12.54 -3.638,-3.817 -7.549,-7.003 -11.722,-9.541 -4.184,-2.548 -8.452,-3.817 -12.813,-3.817 -2.547,0 -4.822,1.09 -6.814,3.271 -2.002,2.181 -3,5.086 -3,8.723 0,2.181 0.357,4.72 1.089,7.633 l 1.637,9.815 3.272,9.813 c 1.09,4.72 2.359,8.902 3.816,12.541 C 64.881,-22.175 47.885,-39.171 32.44,-57.521 16.986,-75.878 3.637,-95.779 -7.633,-117.221 c -0.724,-1.448 -1.637,-2.181 -2.726,-2.181 -1.45,0 -2.36,0.545 -2.727,1.635 -0.357,1.091 -0.545,1.823 -0.545,2.182 l 0.545,1.089 c 2.914,21.443 7.906,43.975 14.994,67.607 7.088,23.623 14.26,46.344 21.535,68.153 L 5.996,-3.816 C 5.264,-4.549 4.361,-4.907 3.271,-4.907 c -2.539,0 -3.816,1.091 -3.816,3.271 0,0.358 0.094,0.631 0.272,0.818 C -0.086,-0.639 0,-0.366 0,0"
             style="fill:#1d1d1b;fill-opacity:1;fill-rule:nonzero;stroke:none"
             id="path11424" />
        </g>
        <g
           id="g11426"
           transform="translate(2179.7256,373.5748)">
          <path
             d="m 0,0 c -2.914,-0.733 -5.998,-2.547 -9.27,-5.452 -3.271,-2.914 -5.996,-5.998 -8.177,-9.269 l -4.907,-7.088 c -8.357,-11.995 -14.806,-24.535 -19.355,-37.62 -4.541,-13.085 -6.629,-23.989 -6.27,-32.712 0,-3.272 0.545,-6.731 1.635,-10.359 1.09,-3.638 4.004,-5.453 8.725,-5.453 h 1.635 c 3.636,0 7.002,1.09 10.086,3.272 3.093,2.181 5.81,4.634 8.179,7.36 2.36,2.726 4.268,5.452 5.725,8.178 1.447,2.726 2.537,4.635 3.271,5.725 2.905,4.361 5.264,9.081 7.088,14.175 1.815,5.086 3.449,10.172 4.906,15.266 v 1.09 c -1.824,4.363 -2.914,9.27 -3.271,14.722 -0.367,5.452 -0.545,10.904 -0.545,16.356 0,3.629 0.178,7.088 0.545,10.359 0.357,3.272 0.902,6.722 1.635,10.36 v 0.545 c 0,0.358 0.086,0.63 0.273,0.817 0.18,0.18 0.274,0.452 0.274,0.818 z m 14.721,-58.339 c 2.181,-2.913 4.174,-4.727 5.998,-5.452 l 3.271,-1.09 c 6.901,0 13.358,2.998 19.356,8.996 5.996,5.997 11.449,12.719 16.355,20.173 4.906,7.445 9.082,14.176 12.541,20.173 3.449,5.997 6.082,8.997 7.904,8.997 2.182,0 3.272,-1.091 3.272,-3.272 0,-0.733 -0.188,-1.278 -0.545,-1.636 l -9.814,-17.446 c -3.272,-4.363 -6.729,-9.09 -10.36,-14.176 -3.636,-5.095 -7.453,-9.815 -11.449,-14.176 -4.004,-4.361 -8.365,-7.905 -13.084,-10.632 -4.728,-2.725 -9.637,-4.089 -14.721,-4.089 -2.549,0 -5.367,0.904 -8.451,2.726 -3.094,1.814 -5.002,3.63 -5.724,5.452 l -3.272,-7.088 c -2.182,-4.727 -4.728,-9.635 -7.633,-14.72 -2.914,-5.094 -6.092,-9.814 -9.543,-14.176 -3.459,-4.361 -7.181,-7.905 -11.176,-10.632 -3.996,-2.725 -8.357,-4.089 -13.085,-4.089 h -2.727 c -1.814,0 -3.449,0.359 -4.906,1.091 -1.449,0.724 -3.084,1.448 -4.907,2.181 l -5.453,9.268 c -0.724,2.181 -1.175,4.363 -1.363,6.543 -0.178,2.181 -0.271,4.174 -0.271,5.997 0,7.991 1.183,16.084 3.543,24.263 2.369,8.177 5,15.538 7.906,22.081 2.914,6.543 5.638,12.174 8.178,16.901 2.546,4.72 4.361,7.813 5.453,9.27 l 4.906,7.632 c 3.629,5.453 7.99,10.538 13.086,15.266 5.086,4.72 10.537,7.088 16.355,7.088 0.725,0 1.27,-0.187 1.637,-0.545 h 1.635 c 3.271,-1.09 4.906,-3.271 4.906,-6.543 v -1.09 l -1.09,-2.181 1.09,-1.09 c 3.272,-3.272 5.18,-6.73 5.727,-10.36 0.545,-3.637 0.816,-6.908 0.816,-9.813 0,-4.004 -0.187,-7.361 -0.545,-10.087 -0.365,-2.727 -0.912,-5.546 -1.635,-8.451 l -2.181,-8.724 c -0.366,-1.822 -0.733,-3.27 -1.09,-4.361 -0.367,-1.091 -0.733,-2.368 -1.092,-3.817 z"
             style="fill:#1d1d1b;fill-opacity:1;fill-rule:nonzero;stroke:none"
             id="path11428" />
        </g>
      </g>
    </g>
    <text
       xml:space="preserve"
       transform="matrix(1,0,0,-1,431.2061,115.8223)"
       style="font-variant:normal;font-weight:300;font-stretch:normal;font-size:72.912px;font-family:'Montserrat Light';-inkscape-font-specification:Montserrat-Light;writing-mode:lr-tb;fill:#1d1d1b;fill-opacity:1;fill-rule:nonzero;stroke:none"
       id="text11432"><tspan
         x="0 66.933212 143.12625 220.19424 275.38861 351.94623 425.22278 496.16617 566.3075 633.24072 709.43378"
         y="0"
         sodipodi:role="line"
         id="tspan11430">PHOTOGRAPHY</tspan></text>
  </g>
  <g
     id="g11436"
     inkscape:groupmode="layer"
     inkscape:label="Page 4"
     transform="matrix(1.3333333,0,0,-1.3333333,3142.2136,904.60267)">
    <g
       id="g12008"
       transform="translate(-2317.402,-774.57282)">
      <g
         id="g11438">
        <g
           id="g11440"
           clip-path="url(#clipPath11444)">
          <text
             xml:space="preserve"
             transform="matrix(1,0,0,-1,-2562.5674,551.8057)"
             style="font-variant:normal;font-weight:100;font-stretch:normal;font-size:545.218px;font-family:'Xtreem Thin PERSONAL USE';-inkscape-font-specification:XtreemThinPERSONALUSE;writing-mode:lr-tb;fill:#1d1d1b;fill-opacity:1;fill-rule:nonzero;stroke:none"
             id="text11448"><tspan
               x="0 467.25208 592.65228 724.04993 797.10913 900.70062 1027.1913 1190.7567 1429.0172 1510.2546 1641.6523 1788.316 1890.817 2017.3077 2098.5452 2229.9429"
               y="0"
               sodipodi:role="line"
               id="tspan11446">Adrien Carbonaro</tspan></text>
          <g
             id="g11450"
             transform="translate(423.0907,337.0455)">
            <path
               d="m 0,0 17.992,222.994 v 29.987 L 13.086,238.805 C -15.266,180.279 -44.435,122.674 -74.422,65.971 -104.408,9.269 -134.123,-47.979 -163.564,-105.772 l 153.751,-0.546 z m -339.67,-104.683 168.473,-1.089 c 35.251,67.24 68.876,134.753 100.865,202.547 31.98,67.787 63.424,135.488 94.322,203.095 1.09,3.271 3.45,4.907 7.088,4.907 2.539,0 4.541,-0.912 5.998,-2.726 1.447,-1.823 2.18,-3.817 2.18,-5.998 L 25.626,147.754 C 23.445,122.674 20.992,97.866 18.266,73.331 15.539,48.797 13.086,23.989 10.904,-1.091 l -11.449,-105.227 179.922,-1.636 c 2.182,0 4.09,-0.724 5.725,-2.181 1.636,-1.448 2.454,-3.271 2.454,-5.452 0,-5.452 -2.726,-8.178 -8.179,-8.178 l -181.557,3.271 -2.726,-28.897 c -0.366,-4.361 -1.006,-11.083 -1.908,-20.172 -0.913,-9.082 -1.909,-19.168 -2.999,-30.26 -1.091,-11.083 -2.275,-22.626 -3.544,-34.621 -1.278,-11.995 -2.547,-22.806 -3.817,-32.441 -1.277,-9.627 -2.547,-17.626 -3.816,-23.989 -1.278,-6.355 -2.275,-9.542 -2.998,-9.542 -1.824,0 -2.727,1.091 -2.727,3.271 2.181,24.723 4.541,49.437 7.088,74.15 2.539,24.723 4.719,49.436 6.543,74.15 l 2.18,28.897 -159.203,2.725 c -0.733,-1.09 -1.636,-2.81 -2.727,-5.179 -1.09,-2.36 -2.273,-4.634 -3.543,-6.815 -1.278,-2.181 -2.548,-4.09 -3.816,-5.725 -1.279,-1.635 -2.096,-2.454 -2.454,-2.454 -2.181,0 -3.272,0.912 -3.272,2.727 0,2.181 1.176,5.179 3.544,8.996 2.359,3.817 4.268,6.815 5.725,8.996 l -163.565,2.726 c -1.092,0 -2.096,0.545 -3,1.636 -0.911,1.09 -1.362,2.18 -1.362,3.271 0.723,2.913 2.359,4.361 4.907,4.361"
               style="fill:#ffffff;fill-opacity:1;fill-rule:nonzero;stroke:none"
               id="path11452" />
          </g>
          <g
             id="g11454"
             transform="translate(517.4111,370.3033)">
            <path
               d="m 0,0 h -3.271 c -2.914,-0.732 -5.725,-2.454 -8.452,-5.18 -2.725,-2.726 -5.179,-5.546 -7.359,-8.45 l -7.634,-10.905 c -2.905,-4.004 -5.537,-7.905 -7.905,-11.722 -2.359,-3.816 -4.447,-7.726 -6.27,-11.722 l -5.998,-12.541 c -1.814,-4.003 -3.629,-8.177 -5.452,-12.54 -1.814,-4.361 -3.084,-8.91 -3.816,-13.629 l -1.636,-6.543 c -0.725,-1.457 -1.176,-3.186 -1.363,-5.18 -0.179,-2.002 -0.273,-3.544 -0.273,-4.634 0,-1.823 0.273,-3.365 0.818,-4.635 0.545,-1.277 1.908,-1.908 4.089,-1.908 l 5.452,2.727 2.726,2.18 4.907,4.362 4.363,5.452 c 2.913,3.629 5.451,7.36 7.633,11.177 2.18,3.817 4.727,7.718 7.632,11.722 l 13.085,24.535 c 2.181,3.996 4.175,8.084 5.997,12.268 1.815,4.174 3.817,8.263 5.998,12.267 L 25.08,28.896 35.439,54.521 c 5.086,13.444 9.899,26.623 14.449,39.529 4.54,12.898 9.175,26.077 13.903,39.528 l 7.633,22.355 1.09,3.816 c 0.724,2.905 2.726,4.361 5.998,4.361 1.814,0 3.356,-0.638 4.634,-1.908 1.269,-1.277 1.909,-2.819 1.909,-4.634 v -2.181 l -1.091,-2.181 c -1.823,-6.185 -3.544,-12.088 -5.18,-17.72 -1.636,-5.639 -3.365,-11.543 -5.18,-17.719 L 63.246,80.146 C 58.518,62.7 53.517,44.793 48.252,26.443 42.979,8.084 38.25,-10.274 34.076,-28.624 29.894,-46.982 26.443,-65.153 23.717,-83.146 c -2.727,-17.992 -4.089,-35.167 -4.089,-51.523 0,-2.181 0.179,-3.816 0.546,-4.907 v -2.726 l 8.178,11.449 c 14.175,20.353 27.533,41.523 40.073,63.519 12.54,21.987 24.075,43.157 34.622,63.518 0.724,0.723 1.635,1.089 2.725,1.089 1.815,0 2.726,-0.911 2.726,-2.725 l -0.545,-1.091 c -3.271,-6.185 -6.637,-12.633 -10.086,-19.354 -3.459,-6.731 -7.003,-13.18 -10.633,-19.356 L 66.517,-81.237 c -5.095,-9.09 -10.453,-18.086 -16.084,-26.989 -5.64,-8.911 -11.365,-17.532 -17.175,-25.898 l -5.997,-8.723 c -1.456,-1.815 -2.999,-3.902 -4.634,-6.27 -1.637,-2.36 -2.999,-3.544 -4.09,-3.544 -1.457,0 -2.547,1.005 -3.271,2.999 -0.733,2.002 -1.184,4.361 -1.363,7.088 -0.187,2.725 -0.272,5.367 -0.272,7.905 v 4.907 c 0,17.448 1.09,34.621 3.271,51.524 2.18,16.901 4.907,33.342 8.178,49.342 3.272,15.99 6.816,31.434 10.632,46.343 3.816,14.9 7.36,29.254 10.632,43.073 L 20.719,0 -10.359,-62.7 -17.447,-74.694 c -2.913,-4.005 -5.451,-8 -7.633,-11.995 -2.181,-4.004 -4.906,-7.821 -8.178,-11.451 l -9.814,-10.358 -6.543,-4.362 c -1.815,-1.09 -3.817,-1.636 -5.997,-1.636 h -2.181 l -4.361,3.271 c -1.45,2.539 -2.182,5.265 -2.182,8.179 0,9.447 1.457,18.81 4.361,28.078 2.914,9.27 6.092,17.626 9.542,25.08 3.458,7.447 6.816,13.81 10.087,19.083 3.272,5.265 5.451,8.809 6.542,10.632 l 7.634,11.994 c 0.732,0.725 1.456,1.636 2.18,2.727 0.733,1.09 1.457,2.181 2.181,3.271 l 4.907,5.452 c 1.09,0.724 2.088,1.636 3,2.726 0.902,1.091 2.086,1.993 3.543,2.727 l 3.816,2.18 c 0.725,0 1.449,0.085 2.182,0.273 0.723,0.178 1.447,0.272 2.18,0.272 h 1.636 c 3.629,0 5.452,-1.823 5.452,-5.452 C 4.907,1.993 3.271,0 0,0"
               style="fill:#ffffff;fill-opacity:1;fill-rule:nonzero;stroke:none"
               id="path11456" />
          </g>
          <g
             id="g11458"
             transform="translate(618.2744,364.8511)">
            <path
               d="m 0,0 38.711,65.972 0.545,1.09 c 1.09,1.814 2.904,2.726 5.452,2.726 1.814,0 3.356,-0.64 4.634,-1.908 1.269,-1.278 1.908,-2.642 1.908,-4.09 0,-0.366 -0.094,-0.639 -0.271,-0.817 -0.188,-0.188 -0.274,-0.46 -0.274,-0.819 L 41.981,39.801 17.992,-26.171 C 13.988,-37.075 10.359,-48.346 7.088,-59.974 3.816,-71.611 0.732,-82.694 -2.182,-93.232 v -1.09 c 8.725,15.265 18.623,30.165 29.715,44.707 11.084,14.534 22.985,27.985 35.712,40.346 l 23.444,22.354 6.543,5.452 2.181,1.636 c 1.091,1.091 2.36,1.636 3.816,1.636 2.181,0 3.817,-0.733 4.908,-2.181 1.09,-1.457 1.635,-2.914 1.635,-4.362 0,-1.456 -0.187,-2.547 -0.545,-3.272 h -0.545 c 0,-0.732 -0.367,-1.456 -1.09,-2.181 l -3.817,-5.997 -4.362,-8.178 -8.724,-17.447 -3.271,-8.723 c -0.732,-4.004 -1.457,-7.276 -2.181,-9.814 -0.732,-2.548 -1.091,-5.273 -1.091,-8.178 0,-2.914 1.091,-4.362 3.272,-4.362 H 85.6 c 0.357,0.358 2.81,1.542 7.359,3.544 4.541,1.993 8.809,5.359 12.813,10.086 2.906,3.629 5.904,7.36 8.997,11.177 3.083,3.817 5.903,7.719 8.45,11.723 l 4.907,8.723 c 0.724,0.724 1.448,2.181 2.181,4.362 l 2.181,3.816 c 0.724,1.448 1.635,2.181 2.726,2.181 2.539,0 3.817,-1.09 3.817,-3.271 0,-0.367 -0.094,-0.64 -0.273,-0.818 -0.188,-0.188 -0.273,-0.46 -0.273,-0.818 v -0.546 l -2.725,-3.816 -8.179,-12.54 c -2.913,-4.361 -5.997,-8.816 -9.268,-13.357 -3.272,-4.549 -6.731,-8.724 -10.36,-12.54 -3.638,-3.817 -7.548,-7.003 -11.723,-9.541 -4.182,-2.548 -8.45,-3.817 -12.812,-3.817 -2.547,0 -4.821,1.09 -6.814,3.271 -2.002,2.181 -3,5.086 -3,8.723 0,2.181 0.358,4.72 1.091,7.633 l 1.635,9.815 3.272,9.813 c 1.09,4.72 2.359,8.902 3.816,12.54 C 64.881,-22.175 47.885,-39.171 32.44,-57.521 16.986,-75.879 3.638,-95.779 -7.633,-117.222 c -0.724,-1.448 -1.637,-2.18 -2.726,-2.18 -1.449,0 -2.36,0.545 -2.727,1.634 -0.357,1.091 -0.545,1.824 -0.545,2.182 l 0.545,1.09 c 2.914,21.442 7.906,43.975 14.994,67.607 7.088,23.623 14.261,46.344 21.536,68.153 L 5.997,-3.816 C 5.265,-4.55 4.361,-4.907 3.271,-4.907 c -2.539,0 -3.816,1.091 -3.816,3.271 0,0.358 0.094,0.63 0.272,0.818 C -0.086,-0.639 0,-0.366 0,0"
               style="fill:#ffffff;fill-opacity:1;fill-rule:nonzero;stroke:none"
               id="path11460" />
          </g>
          <g
             id="g11462"
             transform="translate(772.0244,452.6314)">
            <path
               d="m 0,0 3.816,17.992 c 0.725,3.629 2.905,5.452 6.543,5.452 1.815,0 3.272,-0.732 4.362,-2.18 1.09,-1.457 1.635,-3.093 1.635,-4.908 V 14.721 L 10.359,-2.727 C 8.902,-5.273 7.088,-6.543 4.906,-6.543 c -3.636,0 -5.451,1.636 -5.451,4.907 0,0.724 0.178,1.27 0.545,1.636 m -9.27,-90.507 -5.451,-15.81 c -0.732,-2.914 -1.457,-5.546 -2.181,-7.907 -0.733,-2.368 -1.457,-5 -2.181,-7.905 l -8.724,-32.168 c -1.447,-6.543 -2.81,-13.179 -4.089,-19.9 -1.268,-6.731 -1.908,-13.545 -1.908,-20.446 0,-1.457 0.188,-2.726 0.546,-3.817 0.365,-1.09 0.545,-2.181 0.545,-3.27 l 1.635,1.089 4.908,5.998 20.172,26.17 20.174,26.716 c 2.18,2.905 5.264,7.539 9.268,13.903 3.995,6.355 8.085,12.719 12.267,19.083 4.175,6.355 8.086,11.901 11.723,16.628 3.629,4.72 6.176,7.088 7.632,7.088 1.45,0 2.361,-0.366 2.727,-1.09 0.357,-0.732 0.545,-1.457 0.545,-2.18 0,-1.091 -0.188,-1.823 -0.545,-2.182 l -49.07,-67.606 -19.627,-27.261 -13.086,-16.902 -4.362,-4.907 c -0.724,0 -1.089,-0.358 -1.089,-1.09 h -1.091 l -2.181,-0.545 c -1.814,0 -3.084,0.545 -3.816,1.635 -0.725,1.09 -1.45,2.002 -2.182,2.726 l -1.635,4.907 c 0,1.09 -0.086,2.266 -0.273,3.544 -0.179,1.27 -0.273,2.632 -0.273,4.089 0,6.9 0.546,13.443 1.636,19.628 1.09,6.177 2.181,12.719 3.272,19.628 l 6.543,32.713 5.451,24.535 2.181,8.178 c 0.367,3.271 2.369,4.907 5.997,4.907 1.815,0 3.357,-0.545 4.634,-1.636 1.27,-1.091 1.908,-2.547 1.908,-4.361 z"
               style="fill:#ffffff;fill-opacity:1;fill-rule:nonzero;stroke:none"
               id="path11464" />
          </g>
          <g
             id="g11466"
             transform="translate(827.0849,343.5875)">
            <path
               d="m 0,0 -2.727,-10.904 c -0.723,-2.913 -1.175,-5.64 -1.363,-8.178 -0.178,-2.548 -0.451,-5.273 -0.817,-8.179 0,-2.547 0.366,-5.997 1.091,-10.359 0.732,-4.361 3.091,-6.542 7.087,-6.542 l 5.998,3.27 c 3.995,2.906 7.36,6.901 10.086,11.996 2.726,5.085 4.993,10.171 6.815,15.266 l 1.091,3.817 2.725,12.54 c 0.725,2.538 1.27,5.179 1.637,7.905 0.357,2.725 0.902,5.724 1.635,8.996 l 1.091,16.356 c 0,1.449 -0.188,2.539 -0.546,3.272 l -0.545,3.271 c -0.366,0.358 -0.545,0.724 -0.545,1.09 0,0.359 -0.366,0.546 -1.09,0.546 l -3.271,-1.091 c -0.368,-0.366 -0.733,-0.545 -1.091,-0.545 -0.366,0 -0.911,-0.366 -1.636,-1.09 L 22.898,39.256 C 18.895,35.252 15.623,30.89 13.085,26.171 10.538,21.442 7.99,16.535 5.452,11.45 Z m -12.54,-35.984 -3.817,-16.902 c -1.09,-4.362 -1.993,-8.996 -2.726,-13.903 -0.724,-4.907 -1.091,-9.729 -1.091,-14.448 0,-7.276 0.819,-13.444 2.454,-18.537 1.636,-5.086 4.456,-7.634 8.45,-7.634 l 1.092,-0.545 h 0.545 c 5.094,0 10.086,1.823 14.993,5.452 4.908,3.638 9.72,7.454 14.449,11.45 l 22.353,25.625 c 6.901,9.447 13.716,18.81 20.446,28.078 6.722,9.27 12.992,18.99 18.81,29.17 l 8.724,15.266 8.178,14.721 c 0.358,1.448 1.448,2.18 3.272,2.18 2.538,0 3.816,-1.277 3.816,-3.816 0,-0.366 -0.094,-0.639 -0.273,-0.818 -0.188,-0.187 -0.272,-0.459 -0.272,-0.818 L 98.139,3.271 93.232,-4.361 88.871,-11.449 C 82.686,-21.264 76.33,-30.992 69.787,-40.618 63.245,-50.254 56.516,-59.795 49.615,-69.242 l -11.45,-13.631 c -2.548,-2.913 -5.452,-6.185 -8.724,-9.814 -3.271,-3.629 -6.814,-7.087 -10.63,-10.359 -3.818,-3.271 -7.728,-5.997 -11.723,-8.179 -4.004,-2.18 -7.991,-3.271 -11.995,-3.271 h -5.452 c -3.996,0 -6.995,1.363 -8.996,4.09 -1.995,2.725 -3.178,4.455 -3.544,5.179 l -3.272,9.269 c -1.448,3.995 -2.087,8.45 -1.908,13.357 0.187,4.908 0.272,9.542 0.272,13.904 1.457,14.899 3.911,29.527 7.362,43.889 3.458,14.355 8.271,28.258 14.447,41.709 l 4.362,8.179 c 0.733,2.539 1.993,5.18 3.817,7.905 1.814,2.727 3.629,5.359 5.452,7.907 l 9.814,10.359 c 1.09,1.814 2.998,3.27 5.725,4.361 2.725,1.091 5.358,1.636 7.905,1.636 l 3.817,-0.545 C 42.885,54.155 46.889,47.246 46.889,35.984 47.246,26.895 46.344,18.989 44.162,12.268 41.981,5.537 39.801,-1.277 37.619,-8.178 l -2.18,-6.543 -1.09,-1.635 C 31.436,-24.355 27.619,-31.443 22.898,-37.62 18.171,-43.805 11.807,-48.166 3.816,-50.705 l -5.998,1.091 -2.725,1.635 -1.636,2.181 c -2.181,3.272 -3.45,6.176 -3.816,8.724 -0.358,2.538 -0.545,4.906 -0.545,7.088 z"
               style="fill:#ffffff;fill-opacity:1;fill-rule:nonzero;stroke:none"
               id="path11468" />
          </g>
          <g
             id="g11470"
             transform="translate(945.3896,385.5689)">
            <path
               d="m 0,0 -43.617,-107.407 -3.272,-7.633 8.179,10.358 9.814,13.086 21.263,25.625 c 5.086,6.176 10.446,12.54 16.084,19.082 5.631,6.543 11.535,12.54 17.72,17.993 l 6.542,5.998 c 0.358,0.723 0.818,1.174 1.363,1.362 0.546,0.18 1.176,0.631 1.908,1.363 l 2.727,1.091 0.545,0.545 h 1.637 c 0.357,0.357 0.902,0.545 1.634,0.545 l 1.091,-0.545 h 0.545 c 1.448,0 2.632,-0.639 3.544,-1.908 0.903,-1.279 1.721,-2.641 2.453,-4.089 l 1.091,-4.907 c 0.358,-1.824 0.63,-3.366 0.817,-4.634 0.18,-1.279 0.274,-2.642 0.274,-4.09 0,-10.546 -0.461,-20.445 -1.363,-29.714 -0.913,-9.268 -1.364,-18.631 -1.364,-28.079 0,-1.823 0.18,-3.638 0.545,-5.452 0.359,-1.823 0.725,-3.638 1.091,-5.452 v -0.545 l 4.362,3.271 9.814,12.54 c 1.814,2.181 3.356,4.447 4.634,6.815 1.269,2.36 2.632,4.635 4.089,6.815 l 9.269,14.176 c 1.448,2.181 3.45,5.811 5.997,10.904 2.539,5.086 5.18,10.087 7.906,14.993 2.726,4.908 5.265,9.269 7.633,13.086 2.359,3.817 4.268,5.725 5.725,5.725 2.181,0 3.271,-1.278 3.271,-3.816 v -1.091 L 97.049,-52.886 C 92.687,-60.161 88.505,-67.428 84.51,-74.694 80.506,-81.97 75.965,-88.87 70.879,-95.413 l -4.907,-6.542 c -1.824,-2.181 -3.638,-4.183 -5.452,-5.998 -1.823,-1.822 -2.914,-3.092 -3.272,-3.817 l -2.726,-1.635 c -0.366,0 -0.817,-0.187 -1.363,-0.545 -0.545,-0.366 -1.184,-0.545 -1.908,-0.545 -2.913,0 -4.821,0.996 -5.725,2.999 -0.911,1.993 -1.363,3.356 -1.363,4.089 l -1.091,2.18 c -0.732,2.906 -1.09,5.81 -1.09,8.724 v 8.724 16.356 c 0,2.905 0.085,5.631 0.273,8.178 0.179,2.539 0.272,5.266 0.272,8.179 v 8.177 c 0,2.906 -0.187,5.811 -0.545,8.724 -0.366,2.905 -0.732,5.632 -1.089,8.179 l -7.634,-6.543 -11.45,-11.45 c -13.452,-13.818 -26.63,-27.994 -39.528,-42.527 -12.898,-14.542 -24.807,-29.441 -35.712,-44.708 l -7.088,-9.813 -1.09,-2.181 c -0.725,-0.725 -1.09,-1.363 -1.09,-1.908 0,-0.546 -0.545,-1.176 -1.637,-1.908 l -0.545,-0.546 c -0.723,0 -1.176,-0.085 -1.363,-0.273 -0.178,-0.178 -0.63,-0.272 -1.362,-0.272 -0.724,0 -1.449,0.272 -2.181,0.817 -0.725,0.546 -1.091,1.363 -1.091,2.454 l 0.546,1.09 v 1.091 l 0.545,1.636 0.545,0.545 3.816,5.997 2.182,3.817 c 1.09,2.538 2.18,4.992 3.27,7.36 1.091,2.36 2.002,4.813 2.726,7.361 l 11.996,31.077 c 2.18,5.81 5.094,14.176 8.723,25.08 3.637,10.904 7.361,21.715 11.177,32.44 3.817,10.717 7.547,20.079 11.176,28.079 3.63,7.991 6.543,11.995 8.725,11.995 1.814,0 3.271,-0.639 4.361,-1.909 C 0,5.538 0.546,4.175 0.546,2.727 0.546,0.903 0.358,0 0,0"
               style="fill:#ffffff;fill-opacity:1;fill-rule:nonzero;stroke:none"
               id="path11472" />
          </g>
          <g
             id="g11474"
             transform="translate(1455.161,513.15)">
            <path
               d="m 0,0 c -2.182,5.452 -4.551,9.993 -7.088,13.631 l -3.816,6.543 c -3.639,7.266 -8.639,13.442 -14.994,18.537 -6.364,5.086 -13.274,9.268 -20.719,12.54 -7.453,3.271 -15.088,5.725 -22.899,7.36 -7.82,1.636 -14.994,2.453 -21.537,2.453 -16.355,0 -32.168,-2.913 -47.433,-8.722 -15.266,-5.82 -29.629,-13.086 -43.073,-21.81 -13.451,-8.722 -25.625,-18.086 -36.529,-28.078 -10.904,-10.002 -19.994,-19.355 -27.262,-28.079 -10.904,-12.728 -20.632,-26.085 -29.168,-40.073 -8.544,-13.997 -15.812,-28.173 -21.809,-42.528 -5.997,-14.363 -10.726,-28.811 -14.176,-43.344 -3.458,-14.542 -5.546,-28.352 -6.27,-41.437 0,-15.632 1.449,-31.264 4.362,-46.889 2.905,-15.632 8.724,-30.344 17.447,-44.163 8.724,-13.808 20.898,-26.348 36.529,-37.619 15.624,-11.262 36.164,-20.352 61.611,-27.261 11.628,-2.905 23.529,-5.086 35.711,-6.542 12.174,-1.449 24.262,-2.182 36.258,-2.182 19.985,0 39.433,1.363 58.337,4.09 18.895,2.725 37.434,6.091 55.614,10.086 l 29.986,7.633 c 9.814,2.547 19.713,5.546 29.715,8.997 9.992,3.458 20.078,6.814 30.26,10.086 h 1.089 c 2.54,0 3.817,-1.27 3.817,-3.817 0,-1.814 -2.727,-3.816 -8.178,-5.997 -5.453,-2.181 -11.722,-4.269 -18.81,-6.27 -7.088,-1.994 -14.176,-3.817 -21.264,-5.453 -7.088,-1.635 -12.088,-2.998 -14.994,-4.088 -10.904,-3.629 -22.447,-6.722 -34.621,-9.269 -12.182,-2.539 -24.535,-4.72 -37.075,-6.543 -12.541,-1.814 -24.807,-3.178 -36.802,-4.089 -11.994,-0.903 -23.445,-1.363 -34.349,-1.363 -14.542,0 -29.714,0.912 -45.525,2.726 -15.812,1.823 -31.265,5.094 -46.344,9.814 -15.087,4.728 -29.442,11.177 -43.072,19.355 -13.63,8.178 -25.626,18.631 -35.985,31.35 -10.359,12.728 -18.538,27.994 -24.534,45.799 -5.998,17.804 -8.996,38.522 -8.996,62.154 1.815,36.343 10.171,70.691 25.079,103.047 14.9,32.347 33.531,60.604 55.886,84.781 22.353,24.168 47.066,43.617 74.148,58.338 27.075,14.721 53.883,22.627 80.42,23.718 10.905,0 21.621,-1.457 32.168,-4.362 10.539,-2.914 20.258,-7.361 29.17,-13.358 C -20.812,53.704 -13.086,45.978 -6.543,36.53 0,27.074 4.719,15.812 7.633,2.727 7.633,-0.545 6.176,-2.181 3.27,-2.181 1.447,-2.181 0.357,-1.456 0,0"
               style="fill:#ffffff;fill-opacity:1;fill-rule:nonzero;stroke:none"
               id="path11476" />
          </g>
          <g
             id="g11478"
             transform="translate(1393.5497,391.567)">
            <path
               d="m 0,0 h -0.547 c 0,-0.366 -0.365,-0.546 -1.09,-0.546 l -4.906,-2.725 c -3.271,-2.915 -6.27,-5.546 -8.996,-7.907 -2.727,-2.368 -5.547,-5.366 -8.451,-8.996 l -9.815,-13.085 c -5.086,-7.274 -9.174,-14.72 -12.267,-22.353 -3.084,-7.633 -6.627,-15.453 -10.631,-23.445 l -5.453,-16.356 c -2.18,-6.185 -3.629,-12.183 -4.362,-17.992 -0.724,-5.819 -1.269,-10.905 -1.635,-15.267 0,-2.547 0.366,-5 1.09,-7.36 0.733,-2.368 1.823,-3.544 3.272,-3.544 h 1.635 c 0,0.358 0.546,0.546 1.636,0.546 l 2.726,2.18 c 1.456,1.09 3.272,3.084 5.452,5.997 l 4.906,6.543 4.909,7.633 8.177,14.721 7.088,15.811 c 1.815,3.996 3.629,8.179 5.452,12.541 1.815,4.361 3.084,8.177 3.817,11.449 l 1.636,4.362 c 0,1.814 0.63,3.544 1.908,5.18 1.269,1.635 2.811,2.453 4.635,2.453 3.628,0 5.451,-2.002 5.451,-5.997 v -0.546 l -2.18,-15.811 c -0.732,-5.452 -1.278,-10.725 -1.637,-15.811 -0.365,-5.095 -0.545,-10.547 -0.545,-16.357 v -4.907 l 1.636,2.726 c 2.538,5.086 5.538,10.717 8.997,16.902 3.449,6.176 6.994,12.353 10.631,18.537 l 28.352,45.798 c 0.357,1.091 1.269,1.636 2.726,1.636 2.539,0 3.817,-1.278 3.817,-3.817 0,-1.089 -0.545,-2.725 -1.637,-4.907 -1.09,-2.18 -2.453,-4.455 -4.088,-6.814 -1.637,-2.368 -3.271,-4.729 -4.908,-7.088 -1.635,-2.368 -2.998,-4.277 -4.088,-5.725 -6.186,-9.09 -12.184,-18.81 -17.992,-29.169 -5.819,-10.359 -10.905,-19.901 -15.268,-28.624 l -5.996,-11.995 c -0.367,-1.457 -1.637,-2.181 -3.816,-2.181 -2.548,0 -4.278,1.815 -5.18,5.453 -0.912,3.628 -1.551,7.811 -1.908,12.54 -0.367,5.086 -0.367,11.083 0,17.992 0,0.723 0.084,1.448 0.271,2.18 0.18,0.724 0.274,1.449 0.274,2.181 l -3.272,-5.997 -4.361,-7.088 -8.179,-15.811 -4.362,-7.088 c -3.272,-5.452 -6.721,-10.36 -10.36,-14.721 -3.628,-4.361 -7.086,-7.445 -10.358,-9.269 l -2.726,-1.09 c -0.358,-0.358 -0.903,-0.545 -1.636,-0.545 h -1.635 c -1.449,0 -2.539,0.187 -3.272,0.545 l -2.181,2.18 c -1.815,0.734 -2.998,2.088 -3.543,4.09 -0.545,1.993 -0.818,3.723 -0.818,5.18 l -0.545,4.906 c 0,13.086 2.002,26.171 5.997,39.256 4.004,13.085 8.638,25.259 13.903,36.529 5.273,11.263 10.547,20.991 15.811,29.169 5.265,8.179 9.175,13.904 11.722,17.175 3.272,3.995 6.722,7.539 10.36,10.632 3.628,3.084 6.9,5.537 9.814,7.36 l 1.09,0.545 c 0.724,0.359 1.814,0.546 3.271,0.546 1.448,0 2.905,-0.546 4.362,-1.636 C 3.629,9.813 4.361,8.178 4.361,5.997 4.361,4.906 3.994,3.629 3.27,2.181 2.537,0.724 1.447,0 0,0"
               style="fill:#ffffff;fill-opacity:1;fill-rule:nonzero;stroke:none"
               id="path11480" />
          </g>
          <g
             id="g11482"
             transform="translate(1433.8876,364.8511)">
            <path
               d="m 0,0 38.711,65.972 0.545,1.09 c 1.09,1.814 2.904,2.726 5.453,2.726 1.814,0 3.355,-0.64 4.633,-1.908 1.269,-1.278 1.908,-2.642 1.908,-4.09 0,-0.366 -0.094,-0.639 -0.271,-0.817 -0.188,-0.188 -0.274,-0.46 -0.274,-0.819 L 41.982,39.801 17.992,-26.171 C 13.988,-37.075 10.359,-48.346 7.088,-59.974 3.816,-71.611 0.732,-82.694 -2.18,-93.232 v -1.09 c 8.723,15.265 18.621,30.165 29.713,44.707 11.084,14.534 22.985,27.985 35.713,40.346 l 23.443,22.354 6.543,5.452 2.182,1.636 c 1.09,1.091 2.359,1.636 3.816,1.636 2.18,0 3.817,-0.733 4.907,-2.181 1.09,-1.457 1.636,-2.914 1.636,-4.362 0,-1.456 -0.187,-2.547 -0.546,-3.272 h -0.545 c 0,-0.732 -0.366,-1.456 -1.09,-2.181 l -3.817,-5.997 -4.361,-8.178 -8.725,-17.447 -3.271,-8.723 c -0.732,-4.004 -1.455,-7.276 -2.18,-9.814 -0.732,-2.548 -1.092,-5.273 -1.092,-8.178 0,-2.914 1.092,-4.362 3.272,-4.362 H 85.6 c 0.357,0.358 2.81,1.542 7.361,3.544 4.539,1.993 8.809,5.359 12.812,10.086 2.905,3.629 5.903,7.36 8.997,11.177 3.084,3.817 5.902,7.719 8.449,11.723 l 4.908,8.723 c 0.725,0.724 1.447,2.181 2.18,4.362 l 2.181,3.816 c 0.725,1.448 1.637,2.181 2.727,2.181 2.539,0 3.816,-1.09 3.816,-3.271 0,-0.367 -0.094,-0.64 -0.273,-0.818 -0.188,-0.188 -0.272,-0.46 -0.272,-0.818 v -0.546 l -2.726,-3.816 -8.178,-12.54 c -2.914,-4.361 -5.998,-8.816 -9.269,-13.357 -3.272,-4.549 -6.731,-8.724 -10.36,-12.54 -3.637,-3.817 -7.547,-7.003 -11.723,-9.541 -4.181,-2.548 -8.449,-3.817 -12.812,-3.817 -2.547,0 -4.82,1.09 -6.814,3.271 -2.002,2.181 -2.999,5.086 -2.999,8.723 0,2.181 0.358,4.72 1.09,7.633 l 1.635,9.815 3.272,9.813 c 1.091,4.72 2.361,8.902 3.816,12.54 C 64.881,-22.175 47.887,-39.171 32.441,-57.521 16.988,-75.879 3.639,-95.779 -7.633,-117.222 c -0.724,-1.448 -1.635,-2.18 -2.726,-2.18 -1.448,0 -2.36,0.545 -2.725,1.634 -0.359,1.091 -0.547,1.824 -0.547,2.182 l 0.547,1.09 c 2.912,21.442 7.904,43.975 14.992,67.607 7.088,23.623 14.262,46.344 21.537,68.153 L 5.998,-3.816 C 5.266,-4.55 4.361,-4.907 3.271,-4.907 c -2.539,0 -3.816,1.091 -3.816,3.271 0,0.358 0.094,0.63 0.274,0.818 C -0.084,-0.639 0,-0.366 0,0"
               style="fill:#ffffff;fill-opacity:1;fill-rule:nonzero;stroke:none"
               id="path11484" />
          </g>
          <g
             id="g11486"
             transform="translate(1565.829,364.8511)">
            <path
               d="m 0,0 81.236,137.94 1.092,1.09 c 1.09,2.181 2.727,3.272 4.906,3.272 1.815,0 3.452,-0.639 4.907,-1.908 1.449,-1.279 2.181,-2.82 2.181,-4.635 0,-0.366 -0.093,-0.733 -0.271,-1.09 -0.188,-0.366 -0.274,-0.732 -0.274,-1.091 L 87.234,116.677 69.242,67.062 C 60.877,44.162 53.158,21.536 46.07,-0.818 38.982,-23.172 32.525,-45.619 26.715,-68.152 l -11.449,-43.618 4.906,10.905 16.357,34.348 c 4.362,8.358 8.358,16.988 11.994,25.898 3.629,8.902 7.813,17.532 12.541,25.898 l 4.907,8.723 8.724,12.54 4.362,3.817 4.906,3.271 3.271,1.091 c 0.358,0 0.725,0.085 1.09,0.272 0.36,0.179 0.725,0.273 1.092,0.273 h 3.272 l 3.271,-2.181 2.18,-1.636 1.09,-2.18 c 0,-0.733 0.179,-1.364 0.546,-1.909 0.358,-0.545 0.545,-1.55 0.545,-2.999 l 0.545,-2.725 v -3.817 c 0,-10.18 -1.183,-20.088 -3.545,-29.715 -2.367,-9.634 -5.179,-18.997 -8.449,-28.078 l 33.258,33.803 25.625,26.716 c 0.725,0.725 1.447,1.091 2.182,1.091 2.179,0 3.269,-1.279 3.269,-3.817 0,-0.733 -0.185,-1.278 -0.545,-1.635 L 101.41,-56.703 80.691,-76.876 77.42,-82.873 c -4.004,-7.633 -9.268,-13.818 -15.811,-18.537 -6.543,-4.729 -12.361,-6.909 -17.447,-6.543 -1.09,0 -2.002,0.903 -2.726,2.725 0,1.091 0.998,2.727 3,4.908 1.992,2.18 4.447,4.447 7.359,6.815 2.906,2.359 5.81,4.72 8.725,7.088 2.904,2.359 5.263,4.447 7.087,6.27 l 1.09,2.181 4.362,8.178 9.269,25.625 c 0.725,2.905 1.447,5.904 2.18,8.996 0.724,3.084 1.449,6.083 2.181,8.996 l 2.182,17.993 V 2.181 c -0.734,0 -1.457,-0.367 -2.182,-1.091 L 80.691,-4.907 70.879,-19.628 C 62.154,-34.17 54.248,-48.252 47.16,-61.882 40.072,-75.513 32.893,-89.237 25.625,-103.046 L 9.268,-137.395 c -0.733,-1.448 -1.635,-2.181 -2.725,-2.181 -2.182,0 -3.272,1.457 -3.272,4.362 6.543,35.252 14.721,69.694 24.536,103.318 9.812,33.617 19.984,67.693 30.531,102.229 L 63.244,86.145 5.451,-3.271 C 4.719,-4.362 3.816,-4.907 2.727,-4.907 c -2.182,0 -3.272,1.091 -3.272,3.271 0,0.724 0.188,1.27 0.545,1.636"
               style="fill:#ffffff;fill-opacity:1;fill-rule:nonzero;stroke:none"
               id="path11488" />
          </g>
          <g
             id="g11490"
             transform="translate(1738.1161,373.5748)">
            <path
               d="m 0,0 c -2.914,-0.733 -5.998,-2.548 -9.27,-5.452 -3.271,-2.914 -5.996,-5.998 -8.177,-9.27 l -4.907,-7.087 c -8.357,-11.995 -14.806,-24.535 -19.355,-37.62 -4.541,-13.085 -6.629,-23.99 -6.27,-32.713 0,-3.271 0.545,-6.73 1.635,-10.359 1.09,-3.638 4.004,-5.452 8.725,-5.452 h 1.635 c 3.636,0 7.002,1.09 10.086,3.271 3.093,2.181 5.81,4.634 8.179,7.361 2.36,2.725 4.268,5.452 5.725,8.177 1.447,2.727 2.537,4.635 3.271,5.725 2.905,4.362 5.264,9.082 7.088,14.176 1.815,5.086 3.449,10.172 4.906,15.266 v 1.09 c -1.824,4.363 -2.914,9.27 -3.271,14.722 -0.367,5.452 -0.545,10.904 -0.545,16.356 0,3.629 0.178,7.087 0.545,10.359 0.357,3.271 0.902,6.721 1.635,10.359 v 0.545 c 0,0.359 0.086,0.631 0.273,0.818 0.18,0.179 0.274,0.452 0.274,0.818 z m 14.721,-58.339 c 2.181,-2.913 4.174,-4.727 5.998,-5.452 l 3.271,-1.09 c 6.901,0 13.358,2.998 19.356,8.996 5.996,5.997 11.449,12.719 16.355,20.173 4.906,7.445 9.082,14.176 12.541,20.173 3.449,5.997 6.082,8.996 7.904,8.996 2.182,0 3.272,-1.091 3.272,-3.271 0,-0.733 -0.188,-1.278 -0.545,-1.636 l -9.814,-17.446 c -3.272,-4.363 -6.729,-9.09 -10.36,-14.176 -3.636,-5.095 -7.453,-9.815 -11.449,-14.176 -4.004,-4.361 -8.365,-7.905 -13.084,-10.632 -4.728,-2.725 -9.637,-4.089 -14.721,-4.089 -2.549,0 -5.367,0.904 -8.451,2.726 -3.094,1.814 -5.002,3.63 -5.724,5.452 L 5.998,-70.879 C 3.816,-75.606 1.27,-80.514 -1.635,-85.6 c -2.914,-5.093 -6.092,-9.813 -9.543,-14.175 -3.459,-4.362 -7.181,-7.906 -11.176,-10.632 -3.996,-2.726 -8.357,-4.089 -13.085,-4.089 h -2.727 c -1.814,0 -3.449,0.358 -4.906,1.091 -1.449,0.723 -3.084,1.448 -4.907,2.18 l -5.453,9.269 c -0.724,2.181 -1.175,4.362 -1.363,6.543 -0.178,2.181 -0.271,4.174 -0.271,5.997 0,7.991 1.183,16.084 3.543,24.263 2.369,8.177 5,15.538 7.906,22.081 2.914,6.543 5.638,12.174 8.178,16.901 2.546,4.72 4.361,7.813 5.453,9.27 l 4.906,7.632 c 3.629,5.453 7.99,10.538 13.086,15.266 5.086,4.72 10.537,7.088 16.355,7.088 0.725,0 1.27,-0.188 1.637,-0.545 h 1.635 c 3.271,-1.091 4.906,-3.271 4.906,-6.543 V 4.906 l -1.09,-2.18 1.09,-1.09 c 3.272,-3.272 5.18,-6.731 5.727,-10.36 0.545,-3.637 0.816,-6.909 0.816,-9.813 0,-4.004 -0.187,-7.361 -0.545,-10.087 -0.365,-2.727 -0.912,-5.546 -1.635,-8.451 l -2.181,-8.724 c -0.366,-1.822 -0.733,-3.27 -1.09,-4.361 -0.367,-1.091 -0.733,-2.368 -1.092,-3.817 z"
               style="fill:#ffffff;fill-opacity:1;fill-rule:nonzero;stroke:none"
               id="path11492" />
          </g>
          <g
             id="g11494"
             transform="translate(1833.5223,385.5689)">
            <path
               d="m 0,0 -43.617,-107.407 -3.272,-7.633 8.18,10.358 9.813,13.086 21.263,25.625 c 5.086,6.176 10.446,12.54 16.084,19.082 5.631,6.543 11.535,12.54 17.721,17.993 l 6.543,5.998 c 0.357,0.723 0.816,1.174 1.361,1.362 0.547,0.18 1.176,0.631 1.91,1.363 l 2.725,1.091 0.545,0.545 h 1.637 c 0.357,0.357 0.902,0.545 1.634,0.545 l 1.092,-0.545 h 0.545 c 1.447,0 2.633,-0.639 3.543,-1.908 0.904,-1.279 1.721,-2.641 2.453,-4.089 l 1.092,-4.907 c 0.357,-1.824 0.631,-3.366 0.816,-4.634 0.18,-1.279 0.274,-2.642 0.274,-4.09 0,-10.546 -0.459,-20.445 -1.363,-29.714 -0.913,-9.268 -1.364,-18.631 -1.364,-28.079 0,-1.823 0.18,-3.638 0.545,-5.452 0.36,-1.823 0.725,-3.638 1.092,-5.452 v -0.545 l 4.361,3.271 9.815,12.54 c 1.814,2.181 3.355,4.447 4.635,6.815 1.267,2.36 2.63,4.635 4.087,6.815 l 9.27,14.176 c 1.447,2.181 3.449,5.811 5.996,10.904 2.539,5.086 5.18,10.087 7.906,14.993 2.727,4.908 5.266,9.269 7.633,13.086 2.359,3.817 4.268,5.725 5.725,5.725 2.181,0 3.271,-1.278 3.271,-3.816 v -1.091 l -16.9,-28.897 C 92.688,-60.161 88.506,-67.428 84.51,-74.694 80.506,-81.97 75.965,-88.87 70.879,-95.413 l -4.906,-6.542 c -1.825,-2.181 -3.639,-4.183 -5.453,-5.998 -1.823,-1.822 -2.913,-3.092 -3.272,-3.817 l -2.725,-1.635 c -0.367,0 -0.818,-0.187 -1.363,-0.545 -0.545,-0.366 -1.183,-0.545 -1.908,-0.545 -2.914,0 -4.822,0.996 -5.725,2.999 -0.912,1.993 -1.363,3.356 -1.363,4.089 l -1.092,2.18 c -0.732,2.906 -1.09,5.81 -1.09,8.724 v 8.724 16.356 c 0,2.905 0.086,5.631 0.274,8.178 0.178,2.539 0.271,5.266 0.271,8.179 v 8.177 c 0,2.906 -0.187,5.811 -0.545,8.724 -0.365,2.905 -0.732,5.632 -1.089,8.179 L 33.26,-36.529 21.811,-47.979 C 8.357,-61.797 -4.82,-75.973 -17.719,-90.506 c -12.898,-14.542 -24.806,-29.441 -35.711,-44.708 l -7.088,-9.813 -1.091,-2.181 c -0.723,-0.725 -1.09,-1.363 -1.09,-1.908 0,-0.546 -0.545,-1.176 -1.635,-1.908 l -0.547,-0.546 c -0.723,0 -1.174,-0.085 -1.361,-0.273 -0.18,-0.178 -0.631,-0.272 -1.363,-0.272 -0.725,0 -1.45,0.272 -2.182,0.817 -0.725,0.546 -1.09,1.363 -1.09,2.454 l 0.545,1.09 v 1.091 l 0.545,1.636 0.545,0.545 3.816,5.997 2.182,3.817 c 1.09,2.538 2.18,4.992 3.271,7.36 1.09,2.36 2.002,4.813 2.727,7.361 l 11.994,31.077 c 2.182,5.81 5.094,14.176 8.723,25.08 3.638,10.904 7.361,21.715 11.177,32.44 3.817,10.717 7.547,20.079 11.178,28.079 3.629,7.991 6.541,11.995 8.723,11.995 1.814,0 3.271,-0.639 4.361,-1.909 C 0,5.538 0.547,4.175 0.547,2.727 0.547,0.903 0.359,0 0,0"
               style="fill:#ffffff;fill-opacity:1;fill-rule:nonzero;stroke:none"
               id="path11496" />
          </g>
          <g
             id="g11498"
             transform="translate(1981.8192,391.567)">
            <path
               d="m 0,0 h -0.545 c 0,-0.366 -0.367,-0.546 -1.09,-0.546 l -4.908,-2.725 c -3.271,-2.915 -6.27,-5.546 -8.996,-7.907 -2.727,-2.368 -5.545,-5.366 -8.451,-8.996 l -9.813,-13.085 c -5.086,-7.274 -9.176,-14.72 -12.267,-22.353 -3.084,-7.633 -6.629,-15.453 -10.633,-23.445 l -5.451,-16.356 c -2.182,-6.185 -3.629,-12.183 -4.362,-17.992 -0.724,-5.819 -1.269,-10.905 -1.636,-15.267 0,-2.547 0.367,-5 1.089,-7.36 0.735,-2.368 1.825,-3.544 3.272,-3.544 h 1.637 c 0,0.358 0.545,0.546 1.634,0.546 l 2.727,2.18 c 1.457,1.09 3.272,3.084 5.453,5.997 l 4.906,6.543 4.907,7.633 8.179,14.721 7.086,15.811 c 1.817,3.996 3.631,8.179 5.453,12.541 1.815,4.361 3.084,8.177 3.817,11.449 l 1.637,4.362 c 0,1.814 0.628,3.544 1.908,5.18 1.267,1.635 2.81,2.453 4.633,2.453 3.628,0 5.453,-2.002 5.453,-5.997 v -0.546 l -2.182,-15.811 c -0.732,-5.452 -1.277,-10.725 -1.635,-15.811 -0.367,-5.095 -0.545,-10.547 -0.545,-16.357 v -4.907 l 1.635,2.726 c 2.539,5.086 5.537,10.717 8.996,16.902 3.451,6.176 6.994,12.353 10.633,18.537 l 28.35,45.798 c 0.359,1.091 1.269,1.636 2.726,1.636 2.539,0 3.817,-1.278 3.817,-3.817 0,-1.089 -0.545,-2.725 -1.635,-4.907 -1.09,-2.18 -2.453,-4.455 -4.09,-6.814 -1.635,-2.368 -3.271,-4.729 -4.906,-7.088 -1.637,-2.368 -3,-4.277 -4.09,-5.725 -6.184,-9.09 -12.182,-18.81 -17.992,-29.169 -5.819,-10.359 -10.905,-19.901 -15.266,-28.624 l -5.998,-11.995 c -0.365,-1.457 -1.635,-2.181 -3.816,-2.181 -2.547,0 -4.276,1.815 -5.18,5.453 -0.91,3.628 -1.551,7.811 -1.908,12.54 -0.365,5.086 -0.365,11.083 0,17.992 0,0.723 0.086,1.448 0.273,2.18 0.178,0.724 0.272,1.449 0.272,2.181 l -3.272,-5.997 -4.361,-7.088 -8.178,-15.811 -4.361,-7.088 c -3.272,-5.452 -6.723,-10.36 -10.36,-14.721 -3.629,-4.361 -7.087,-7.445 -10.359,-9.269 l -2.727,-1.09 c -0.357,-0.358 -0.902,-0.545 -1.634,-0.545 h -1.637 c -1.447,0 -2.537,0.187 -3.272,0.545 l -2.179,2.18 c -1.815,0.734 -3,2.088 -3.545,4.09 -0.545,1.993 -0.817,3.723 -0.817,5.18 l -0.546,4.906 c 0,13.086 2.002,26.171 5.998,39.256 4.004,13.085 8.638,25.259 13.902,36.529 5.273,11.263 10.547,20.991 15.812,29.169 5.264,8.179 9.174,13.904 11.723,17.175 3.272,3.995 6.721,7.539 10.36,10.632 3.628,3.084 6.9,5.537 9.812,7.36 l 1.092,0.545 c 0.722,0.359 1.814,0.546 3.269,0.546 1.45,0 2.907,-0.546 4.364,-1.636 C 3.629,9.813 4.361,8.178 4.361,5.997 4.361,4.906 3.996,3.629 3.271,2.181 2.539,0.724 1.449,0 0,0"
               style="fill:#ffffff;fill-opacity:1;fill-rule:nonzero;stroke:none"
               id="path11500" />
          </g>
          <g
             id="g11502"
             transform="translate(2022.1591,364.8511)">
            <path
               d="m 0,0 38.709,65.972 0.547,1.09 c 1.09,1.814 2.904,2.726 5.451,2.726 1.815,0 3.358,-0.64 4.635,-1.908 1.269,-1.278 1.908,-2.642 1.908,-4.09 0,-0.366 -0.094,-0.639 -0.273,-0.817 -0.188,-0.188 -0.272,-0.46 -0.272,-0.819 L 41.981,39.801 17.992,-26.171 C 13.988,-37.075 10.359,-48.346 7.088,-59.974 3.816,-71.611 0.732,-82.694 -2.182,-93.232 v -1.09 c 8.725,15.265 18.623,30.165 29.715,44.707 11.082,14.534 22.985,27.985 35.711,40.346 l 23.446,22.354 6.543,5.452 2.179,1.636 c 1.092,1.091 2.36,1.636 3.817,1.636 2.181,0 3.816,-0.733 4.908,-2.181 1.09,-1.457 1.635,-2.914 1.635,-4.362 0,-1.456 -0.188,-2.547 -0.545,-3.272 h -0.545 c 0,-0.732 -0.367,-1.456 -1.09,-2.181 L 99.774,3.816 95.412,-4.362 86.69,-21.809 83.418,-30.532 c -0.732,-4.004 -1.457,-7.276 -2.182,-9.814 -0.732,-2.548 -1.089,-5.273 -1.089,-8.178 0,-2.914 1.089,-4.362 3.271,-4.362 H 85.6 c 0.357,0.358 2.81,1.542 7.359,3.544 4.541,1.993 8.809,5.359 12.813,10.086 2.904,3.629 5.904,7.36 8.996,11.177 3.084,3.817 5.904,7.719 8.451,11.723 l 4.906,8.723 c 0.725,0.724 1.449,2.181 2.182,4.362 l 2.181,3.816 c 0.723,1.448 1.635,2.181 2.725,2.181 2.539,0 3.816,-1.09 3.816,-3.271 0,-0.367 -0.093,-0.64 -0.271,-0.818 -0.188,-0.188 -0.274,-0.46 -0.274,-0.818 v -0.546 l -2.726,-3.816 -8.178,-12.54 c -2.914,-4.361 -5.996,-8.816 -9.267,-13.357 -3.272,-4.549 -6.731,-8.724 -10.36,-12.54 -3.638,-3.817 -7.549,-7.003 -11.722,-9.541 -4.184,-2.548 -8.452,-3.817 -12.813,-3.817 -2.547,0 -4.822,1.09 -6.814,3.271 -2.002,2.181 -3,5.086 -3,8.723 0,2.181 0.357,4.72 1.089,7.633 l 1.637,9.815 3.272,9.813 c 1.09,4.72 2.359,8.902 3.816,12.54 C 64.881,-22.175 47.885,-39.171 32.44,-57.521 16.986,-75.879 3.637,-95.779 -7.633,-117.222 c -0.724,-1.448 -1.637,-2.18 -2.726,-2.18 -1.45,0 -2.36,0.545 -2.727,1.634 -0.357,1.091 -0.545,1.824 -0.545,2.182 l 0.545,1.09 c 2.914,21.442 7.906,43.975 14.994,67.607 7.088,23.623 14.26,46.344 21.535,68.153 L 5.996,-3.816 C 5.264,-4.55 4.361,-4.907 3.271,-4.907 c -2.539,0 -3.816,1.091 -3.816,3.271 0,0.358 0.094,0.63 0.272,0.818 C -0.086,-0.639 0,-0.366 0,0"
               style="fill:#ffffff;fill-opacity:1;fill-rule:nonzero;stroke:none"
               id="path11504" />
          </g>
          <g
             id="g11506"
             transform="translate(2179.7256,373.5748)">
            <path
               d="m 0,0 c -2.914,-0.733 -5.998,-2.548 -9.27,-5.452 -3.271,-2.914 -5.996,-5.998 -8.177,-9.27 l -4.907,-7.087 c -8.357,-11.995 -14.806,-24.535 -19.355,-37.62 -4.541,-13.085 -6.629,-23.99 -6.27,-32.713 0,-3.271 0.545,-6.73 1.635,-10.359 1.09,-3.638 4.004,-5.452 8.725,-5.452 h 1.635 c 3.636,0 7.002,1.09 10.086,3.271 3.093,2.181 5.81,4.634 8.179,7.361 2.36,2.725 4.268,5.452 5.725,8.177 1.447,2.727 2.537,4.635 3.271,5.725 2.905,4.362 5.264,9.082 7.088,14.176 1.815,5.086 3.449,10.172 4.906,15.266 v 1.09 c -1.824,4.363 -2.914,9.27 -3.271,14.722 -0.367,5.452 -0.545,10.904 -0.545,16.356 0,3.629 0.178,7.087 0.545,10.359 0.357,3.271 0.902,6.721 1.635,10.359 v 0.545 c 0,0.359 0.086,0.631 0.273,0.818 0.18,0.179 0.274,0.452 0.274,0.818 z m 14.721,-58.339 c 2.181,-2.913 4.174,-4.727 5.998,-5.452 l 3.271,-1.09 c 6.901,0 13.358,2.998 19.356,8.996 5.996,5.997 11.449,12.719 16.355,20.173 4.906,7.445 9.082,14.176 12.541,20.173 3.449,5.997 6.082,8.996 7.904,8.996 2.182,0 3.272,-1.091 3.272,-3.271 0,-0.733 -0.188,-1.278 -0.545,-1.636 l -9.814,-17.446 c -3.272,-4.363 -6.729,-9.09 -10.36,-14.176 -3.636,-5.095 -7.453,-9.815 -11.449,-14.176 -4.004,-4.361 -8.365,-7.905 -13.084,-10.632 -4.728,-2.725 -9.637,-4.089 -14.721,-4.089 -2.549,0 -5.367,0.904 -8.451,2.726 -3.094,1.814 -5.002,3.63 -5.724,5.452 L 5.998,-70.879 C 3.816,-75.606 1.27,-80.514 -1.635,-85.6 c -2.914,-5.093 -6.092,-9.813 -9.543,-14.175 -3.459,-4.362 -7.181,-7.906 -11.176,-10.632 -3.996,-2.726 -8.357,-4.089 -13.085,-4.089 h -2.727 c -1.814,0 -3.449,0.358 -4.906,1.091 -1.449,0.723 -3.084,1.448 -4.907,2.18 l -5.453,9.269 c -0.724,2.181 -1.175,4.362 -1.363,6.543 -0.178,2.181 -0.271,4.174 -0.271,5.997 0,7.991 1.183,16.084 3.543,24.263 2.369,8.177 5,15.538 7.906,22.081 2.914,6.543 5.638,12.174 8.178,16.901 2.546,4.72 4.361,7.813 5.453,9.27 l 4.906,7.632 c 3.629,5.453 7.99,10.538 13.086,15.266 5.086,4.72 10.537,7.088 16.355,7.088 0.725,0 1.27,-0.188 1.637,-0.545 h 1.635 c 3.271,-1.091 4.906,-3.271 4.906,-6.543 V 4.906 l -1.09,-2.18 1.09,-1.09 c 3.272,-3.272 5.18,-6.731 5.727,-10.36 0.545,-3.637 0.816,-6.909 0.816,-9.813 0,-4.004 -0.187,-7.361 -0.545,-10.087 -0.365,-2.727 -0.912,-5.546 -1.635,-8.451 l -2.181,-8.724 c -0.366,-1.822 -0.733,-3.27 -1.09,-4.361 -0.367,-1.091 -0.733,-2.368 -1.092,-3.817 z"
               style="fill:#ffffff;fill-opacity:1;fill-rule:nonzero;stroke:none"
               id="path11508" />
          </g>
        </g>
      </g>
      <text
         xml:space="preserve"
         transform="matrix(1,0,0,-1,432.2061,115.8223)"
         style="font-variant:normal;font-weight:300;font-stretch:normal;font-size:72.912px;font-family:'Montserrat Light';-inkscape-font-specification:Montserrat-Light;writing-mode:lr-tb;fill:#ffffff;fill-opacity:1;fill-rule:nonzero;stroke:none"
         id="text11512"><tspan
           x="0 66.933212 143.12625 220.19424 275.38861 351.94623 425.22278 496.16617 566.3075 633.24072 709.43378"
           y="0"
           sodipodi:role="line"
           id="tspan11510">PHOTOGRAPHY</tspan></text>
    </g>
  </g>
</svg>
