<svg
  version="1.1"
  id="svg11310"
  width="2912.8398"
  height="806.92395"
  viewBox="0 0 2912.84 806.92397"
  xmlns="http://www.w3.org/2000/svg"
  xmlns:svg="http://www.w3.org/2000/svg"
>
  <g
    id="g11436"
    transform="matrix(1.3333333,0,0,-1.3333333,2985.1843,-177.00041)"
  >
    <path
      style="fill:white"
      id="path11452"
      d="m -1863.2335,-132.75031 c -3.638,0 -5.9984,-1.63623 -7.0884,-4.90723 -30.8978,-67.60686 -62.3413,-135.30787 -94.3213,-203.09473 -31.9888,-67.79386 -65.6137,-135.30702 -100.8647,-202.54688 l -168.4732,1.08838 c -2.548,0 -4.1842,-1.44784 -4.9072,-4.36084 0,-1.091 0.4513,-2.181 1.3623,-3.271 0.904,-1.091 1.908,-1.63623 3,-1.63623 l 163.5645,-2.72607 c -1.457,-2.181 -3.3656,-5.17861 -5.7246,-8.99561 -2.368,-3.81698 -3.5435,-6.8146 -3.5435,-8.9956 0,-1.815 1.09,-2.72754 3.271,-2.72754 0.358,0 1.1746,0.82008 2.4536,2.45508 1.268,1.63498 2.5394,3.54361 3.8174,5.72461 1.27,2.18098 2.452,4.45445 3.542,6.81445 1.091,2.369 1.9945,4.08969 2.7275,5.17969 l 159.2022,-2.72608 -2.1797,-28.89697 c -1.824,-24.71396 -4.003,-49.42597 -6.542,-74.14893 -2.547,-24.71294 -4.9074,-49.42745 -7.0884,-74.15039 0,-2.18 0.9021,-3.271 2.7261,-3.271 0.723,0 1.7205,3.187 2.9985,9.542 1.269,6.36298 2.539,14.3613 3.816,23.98828 1.27,9.63498 2.5393,20.44691 3.8173,32.44189 1.269,11.99498 2.4525,23.53714 3.5435,34.62012 1.09,11.09198 2.087,21.17876 3,30.26074 0.902,9.08898 1.5412,15.81137 1.9072,20.17237 l 2.7261,28.89697 181.5571,-3.271 c 5.453,0 8.1783,2.72623 8.1783,8.17823 0,2.181 -0.8177,4.00268 -2.4537,5.45068 -1.635,1.457 -3.5426,2.18115 -5.7246,2.18115 l -56.3188,0.5127 4.5205,6.57568 c 5.81,8.36598 11.5353,16.98746 17.1753,25.89844 5.631,8.90298 10.989,17.8983 16.084,26.98828 l 20.7158,35.98389 c 3.63,6.17598 7.1743,12.62545 10.6333,19.35645 2.8789,5.61003 5.6637,10.91886 8.4199,16.15429 0.2019,0.13556 0.3935,0.29339 0.5742,0.47461 l 17.4463,25.07959 c -7.275,-21.80894 -14.4481,-44.53036 -21.5361,-68.15332 -7.088,-23.63196 -12.0802,-46.16499 -14.9942,-67.60693 l -0.5449,-1.08985 c 0,-0.358 0.1879,-1.09015 0.5449,-2.18115 0.367,-1.089 1.2786,-1.63477 2.7276,-1.63477 1.089,0 2.0021,0.73169 2.7261,2.17969 11.271,21.44296 24.6182,41.3432 40.0722,59.70118 15.445,18.34996 32.4411,35.34606 50.9781,50.97802 -1.457,-3.63798 -2.726,-7.81906 -3.816,-12.53906 l -3.271,-9.81299 -1.6362,-9.81592 c -0.733,-2.91298 -1.0898,-5.4523 -1.0898,-7.6333 0,-3.63698 0.998,-6.54214 3,-8.72314 1.993,-2.181 4.266,-3.271 6.813,-3.271 4.362,0 8.6311,1.26939 12.8129,3.81739 4.175,2.53798 8.0852,5.72499 11.7232,9.54199 3.629,3.81598 7.0874,7.99006 10.3594,12.53906 3.0739,4.26742 5.9691,8.45215 8.726,12.56104 l -2.7304,-12.28858 -6.542,-32.71289 c -1.091,-6.90898 -2.1825,-13.45046 -3.2725,-19.62744 -1.09,-6.185 -1.6362,-12.72893 -1.6362,-19.62891 0,-1.457 0.093,-2.81838 0.2724,-4.08838 0.187,-1.278 0.274,-2.45492 0.274,-3.54492 l 1.6347,-4.90576 c 0.732,-0.724 1.4562,-1.63608 2.1812,-2.72608 0.732,-1.08998 2.0034,-1.63623 3.8174,-1.63623 l 2.1797,0.54639 h 1.0913 c 0,0.732 0.3658,1.08984 1.0898,1.08984 l 4.3609,4.90577 13.0869,16.90283 19.6274,27.26074 31.3389,43.17627 c -2.0797,-6.21712 -3.9069,-12.51889 -5.4478,-18.91553 -3.451,-14.36196 -5.9038,-28.98922 -7.3608,-43.88818 0,-4.362 -0.086,-8.9963 -0.2725,-13.9043 -0.179,-4.90698 0.4607,-9.36146 1.9087,-13.35644 l 3.271,-9.26953 c 0.366,-0.724 1.5499,-2.45471 3.5449,-5.17969 2.001,-2.727 4.9996,-4.08985 8.9956,-4.08985 h 5.4522 c 4.004,0 7.9901,1.091 11.9941,3.271 3.995,2.182 7.9052,4.90869 11.7232,8.17969 3.816,3.27198 7.3593,6.73039 10.6303,10.35937 3.272,3.629 6.1767,6.89999 8.7247,9.81299 l 11.4492,13.63184 c 6.901,9.44698 13.6303,18.98705 20.1723,28.62305 3.9022,5.74086 7.7162,11.52911 11.4888,17.33935 -3.3752,-10.10384 -6.1546,-18.09457 -8.2236,-23.60889 l -11.9956,-31.07812 c -0.724,-2.548 -1.6351,-5.00084 -2.7261,-7.36084 -1.09,-2.368 -2.1795,-4.82138 -3.2695,-7.35938 l -2.1827,-3.81738 -3.8159,-5.99707 -0.5449,-0.54492 -0.5449,-1.63623 v -1.09131 l -0.5464,-1.08985 c 0,-1.09098 0.3663,-1.90761 1.0913,-2.45361 0.732,-0.545 1.4572,-0.81738 2.1812,-0.81738 0.732,0 1.1843,0.0945 1.3623,0.27246 0.187,0.188 0.6393,0.27246 1.3623,0.27246 l 0.5449,0.54639 c 1.092,0.732 1.6377,1.36269 1.6377,1.90869 0,0.545 0.3648,1.18223 1.0898,1.90723 l 1.0899,2.18115 7.0884,9.81299 c 10.9048,15.26696 22.8134,30.16653 35.7114,44.70849 12.898,14.53298 26.0768,28.70937 39.5288,42.52735 l 11.4492,11.44922 7.6348,6.54345 c 0.357,-2.54698 0.7224,-5.2747 1.0884,-8.17968 0.358,-2.913 0.5449,-5.81715 0.5449,-8.72315 v -8.17822 c 0,-2.913 -0.093,-5.63924 -0.2725,-8.17822 -0.188,-2.547 -0.2724,-5.27323 -0.2724,-8.17823 v -16.35644 -8.72315 c 0,-2.91398 0.3578,-5.81861 1.0898,-8.72461 l 1.0913,-2.17968 c 0,-0.733 0.4513,-2.0954 1.3623,-4.08838 0.904,-2.003 2.8131,-3 5.7261,-3 0.724,0 1.3622,0.17892 1.9072,0.54492 0.546,0.358 0.9978,0.54492 1.3638,0.54492 l 2.7261,1.63623 c 0.358,0.725 1.448,1.99392 3.271,3.81592 1.8138,1.815 3.6281,3.81755 5.4521,5.99853 l 4.9072,6.542 c 5.086,6.54298 9.6264,13.44275 13.6304,20.71875 3.995,7.26598 8.1771,14.53361 12.5391,21.80859 l 16.9028,28.89697 v 1.08985 c 0,2.538 -1.09,3.81738 -3.271,3.81738 -1.457,0 -3.3656,-1.90909 -5.7246,-5.72607 -2.368,-3.817 -4.9073,-8.17747 -7.6333,-13.08545 -2.726,-4.906 -5.3668,-9.90668 -7.9058,-14.99268 -2.547,-5.09298 -4.549,-8.7233 -5.997,-10.9043 l -9.2696,-14.17675 c -1.457,-2.18 -2.8194,-4.45446 -4.0884,-6.81446 -1.278,-2.36798 -2.8207,-4.63345 -4.6347,-6.81445 l -9.8145,-12.54053 -4.3608,-3.27099 v 0.54492 c -0.366,1.814 -0.7323,3.62915 -1.0913,5.45215 -0.365,1.81398 -0.5449,3.62916 -0.5449,5.45214 0,9.448 0.4507,18.81015 1.3637,28.07813 0.902,9.26898 1.3623,19.16838 1.3623,29.71436 0,1.448 -0.094,2.81084 -0.2739,4.08984 -0.187,1.268 -0.4579,2.81077 -0.8159,4.63477 l -1.0913,4.90722 c -0.732,1.448 -1.5506,2.80938 -2.4536,4.08838 -0.912,1.269 -2.0955,1.90869 -3.5435,1.90869 h -0.5449 l -1.0913,0.54493 c -0.732,0 -1.2763,-0.18793 -1.6333,-0.54493 h -1.6377 l -0.5449,-0.54492 -2.7276,-1.09131 c -0.732,-0.732 -1.3612,-1.18377 -1.9072,-1.36377 -0.545,-0.188 -1.0058,-0.6393 -1.3638,-1.3623 l -6.542,-5.99707 c -6.185,-5.453 -12.0892,-11.44968 -17.7202,-17.99268 -5.638,-6.54198 -10.998,-12.90652 -16.084,-19.08252 l -21.2622,-25.62451 -9.8144,-13.08691 -8.1783,-10.35792 3.271,7.63331 43.6172,107.40674 c 0.358,0 0.5464,0.90354 0.5464,2.72754 0,1.44798 -0.5462,2.81139 -1.6362,4.08837 -1.09,1.27 -2.5469,1.9087 -4.3609,1.9087 -2.182,0 -5.0946,-4.00463 -8.7246,-11.99561 -3.629,-7.99998 -7.3597,-17.36115 -11.1767,-28.07813 -0.6484,-1.82218 -1.2788,-3.66157 -1.9219,-5.48877 l -7.6128,-13.32128 c -5.818,-10.17998 -12.0882,-19.89946 -18.81,-29.16944 -6.73,-9.26798 -13.5439,-18.63114 -20.4449,-28.07812 l -22.3535,-25.62598 c -4.729,-3.996 -9.5412,-7.81122 -14.4492,-11.44922 -4.907,-3.629 -9.8987,-5.45215 -14.9927,-5.45215 h -0.5449 l -1.0928,0.54492 c -3.994,0 -6.8132,2.54877 -8.4492,7.63477 -1.635,5.09298 -2.4551,11.26015 -2.4551,18.53613 0,4.719 0.3673,9.54076 1.0913,14.44776 0.733,4.90698 1.6361,9.54083 2.7261,13.90283 l 3.8174,16.90283 1.6362,5.99707 c 0,-2.182 0.1869,-4.54893 0.5449,-7.08691 0.366,-2.548 1.635,-5.45263 3.816,-8.72461 l 1.6362,-2.18115 2.7246,-1.63477 5.9985,-1.09131 c 7.991,2.539 14.3541,6.90047 19.0811,13.08545 4.721,6.17698 8.5377,13.26469 11.4507,21.26367 l 1.0913,1.63477 2.1797,6.54346 c 2.182,6.90098 4.3624,13.71529 6.5434,20.44629 2.182,6.72098 3.0831,14.62684 2.7261,23.71582 0,11.26196 -4.0031,18.17075 -11.9941,20.71875 l -3.8174,0.54492 c -2.547,0 -5.1808,-0.54523 -7.9058,-1.63623 -2.727,-1.091 -4.6346,-2.54684 -5.7246,-4.36084 l -9.8144,-10.35791 c -1.823,-2.548 -3.6382,-5.18023 -5.4522,-7.90723 -1.824,-2.725 -3.0829,-5.36676 -3.8159,-7.90576 l -1.7432,-3.2666 c -1.2017,-1.17209 -2.5981,-2.76574 -4.248,-4.91162 -3.637,-4.727 -7.5482,-10.27393 -11.7232,-16.62891 -4.182,-6.36398 -8.2716,-12.72754 -12.2666,-19.08252 -4.004,-6.36398 -7.088,-10.99785 -9.268,-13.90283 l -20.1739,-26.71582 -20.1723,-26.1709 -4.9073,-5.99707 -1.6347,-1.08985 c 0,1.089 -0.1814,2.181 -0.5464,3.271 -0.358,1.091 -0.5449,2.35892 -0.5449,3.81592 0,6.90098 0.6392,13.71529 1.9072,20.44629 1.279,6.72098 2.6428,13.35692 4.0898,19.8999 l 8.7232,32.16797 c 0.724,2.905 1.4481,5.53776 2.1811,7.90576 0.724,2.361 1.4492,4.99178 2.1812,7.90576 l 5.4507,15.81006 v 2.18262 c 0,1.814 -0.6373,3.26984 -1.9073,4.36084 -1.277,1.091 -2.8197,1.63623 -4.6347,1.63623 -3.628,0 -5.6301,-1.63623 -5.9971,-4.90723 l -0.479,-1.79736 -1.1543,-2.01856 c -0.733,-2.18098 -1.4571,-3.6383 -2.1811,-4.3623 l -4.9073,-8.72314 c -2.547,-4.004 -5.3662,-7.90615 -8.4492,-11.72315 -3.093,-3.817 -6.0911,-7.54776 -8.9971,-11.17676 -4.004,-4.72698 -8.272,-8.09245 -12.813,-10.08545 -4.5488,-2.002 -7.0023,-3.18692 -7.3593,-3.54492 h -2.1826 c -2.181,0 -3.271,1.44831 -3.271,4.36231 0,2.90498 0.3578,5.63022 1.0898,8.17822 0.724,2.538 1.4492,5.81047 2.1812,9.81445 l 3.271,8.72315 8.7246,17.44629 4.3623,8.17822 3.8159,5.99707 c 0.723,0.725 1.0913,1.44915 1.0913,2.18115 h 0.5449 c 0.358,0.725 0.5449,1.815 0.5449,3.271 0,1.448 -0.5462,2.9053 -1.6362,4.3623 -1.091,1.448 -2.7262,2.18116 -4.9072,2.18116 -1.456,0 -2.7249,-0.54524 -3.8159,-1.63624 l -2.1812,-1.63623 -6.5434,-5.45068 -23.4434,-22.35498 c -12.727,-12.36098 -24.6289,-25.81223 -35.7129,-40.34619 -11.092,-14.54198 -20.9894,-29.44206 -29.7144,-44.70704 v 1.08985 c 2.914,10.53798 5.9976,21.6223 9.2696,33.25928 3.271,11.62796 6.9003,22.89875 10.9043,33.80273 l 23.9897,65.97217 8.7232,22.35205 c 0,0.359 0.086,0.63085 0.2739,0.81885 0.177,0.178 0.271,0.45138 0.271,0.81738 0,1.448 -0.6382,2.81185 -1.9072,4.08985 -1.278,1.268 -2.8208,1.90869 -4.6348,1.90869 -2.548,0 -4.3622,-0.91208 -5.4522,-2.72608 l -0.5449,-1.08984 -38.7099,-65.97217 c 0,-0.366 -0.087,-0.63985 -0.274,-0.81885 -0.178,-0.188 -0.271,-0.45938 -0.271,-0.81738 0,-0.55425 0.084,-1.03676 0.2491,-1.4502 -9.8794,-18.91675 -20.563,-38.49205 -32.1431,-58.79589 -12.54,-21.99596 -25.8973,-43.1656 -40.0723,-63.51856 l -6.9858,-9.78076 -1.1924,0.0117 v 1.04589 c -0.367,1.091 -0.5464,2.72623 -0.5464,4.90723 0,16.35596 1.3614,33.53099 4.0884,51.52295 2.726,17.99296 6.1774,36.16353 10.3594,54.52149 4.174,18.34996 8.9037,36.70891 14.1767,55.06787 5.265,18.34996 10.2662,36.25666 14.9942,53.70264 l 10.3579,37.62012 c 1.815,6.17598 3.5437,12.08123 5.1797,17.72021 1.636,5.632 3.3567,11.53522 5.1797,17.72022 l 1.0913,2.17968 v 2.18116 c 0,1.81498 -0.6397,3.35776 -1.9087,4.63476 -1.278,1.27 -2.8208,1.90723 -4.6348,1.90723 -3.272,0 -5.2745,-1.45584 -5.9985,-4.36084 l -1.0899,-3.81592 -7.6318,-22.35498 c -4.728,-13.45098 -9.3643,-26.62937 -13.9043,-39.52735 -4.55,-12.90596 -9.3618,-26.08484 -14.4478,-39.5288 l -10.3593,-25.62598 -21.8086,-51.79395 c -2.181,-4.00398 -4.1836,-8.09407 -5.9986,-12.26807 -1.822,-4.18398 -3.816,-8.27208 -5.997,-12.26806 l -13.0855,-24.53467 c -2.905,-4.004 -5.4518,-7.90468 -7.6318,-11.72168 -2.182,-3.817 -4.7203,-7.54776 -7.6333,-11.17676 l -4.3623,-5.45215 -4.9072,-4.3623 -2.7261,-2.17969 -5.4522,-2.72754 c -2.181,0 -3.5434,0.63169 -4.0884,1.90869 -0.5448,1.27 -0.8188,2.81177 -0.8188,4.63477 0,1.09 0.095,2.6313 0.2739,4.6333 0.187,1.994 0.6373,3.72415 1.3623,5.18115 l 1.6363,6.54199 c 0.732,4.719 2.0019,9.26793 3.8159,13.62891 1.823,4.363 3.6381,8.53753 5.4521,12.54053 l 5.9986,12.54053 c 1.823,3.99598 3.9105,7.90568 6.2695,11.72168 2.368,3.81698 4.9993,7.71914 7.9043,11.72314 l 7.6348,10.9043 c 2.18,2.904 4.6343,5.72468 7.3593,8.45068 2.727,2.726 5.5382,4.44769 8.4522,5.17969 h 3.271 c 3.271,0 4.9057,1.99307 4.9057,5.99707 0,3.629 -1.8216,5.45215 -5.4506,5.45215 h -1.6363 c -0.733,0 -1.4581,-0.0945 -2.1811,-0.27246 -0.733,-0.188 -1.4562,-0.27246 -2.1812,-0.27246 l -3.8159,-2.18116 c -1.457,-0.734 -2.6415,-1.63507 -3.5435,-2.72607 -0.912,-1.09 -1.91,-2.00209 -3,-2.72607 l -4.9072,-5.45215 c -0.724,-1.09 -1.4481,-2.181 -2.1811,-3.271 -0.724,-1.091 -1.4477,-2.00254 -2.1797,-2.72754 l -7.6333,-11.99414 c -1.091,-1.823 -3.27,-5.36684 -6.542,-10.63184 -3.271,-5.27298 -6.6289,-11.63552 -10.0869,-19.08252 -3.45,-7.45398 -6.628,-15.80961 -9.542,-25.07959 -2.904,-9.26798 -4.3609,-18.63114 -4.3609,-28.07812 0,-2.914 0.7312,-5.64069 2.1812,-8.17969 l 4.3608,-3.271 h 2.1812 c 2.18,0 4.1821,0.54624 5.9971,1.63624 l 6.5434,4.3623 9.813,10.35791 c 3.272,3.63 5.9972,7.4467 8.1782,11.45068 2.182,3.995 4.7203,7.99061 7.6333,11.99561 l 7.0884,11.99414 31.0781,62.69971 25.6245,60.52002 c -3.272,-13.81898 -6.8158,-28.17377 -10.6318,-43.07373 -3.816,-14.90898 -7.3598,-30.35184 -10.6318,-46.3418 -3.271,-15.99996 -5.9983,-32.4423 -8.1783,-49.34326 -2.181,-16.90298 -3.2709,-34.07499 -3.2709,-51.52295 v -4.90723 c 0,-1.90397 0.067,-3.88383 0.1699,-5.896 l -108.6665,0.98877 11.4492,105.22706 c 2.182,25.07994 4.6353,49.88891 7.3623,74.42285 2.726,24.53496 5.1784,49.34291 7.3594,74.42285 l 13.6303,148.29786 c 0,2.181 -0.7327,4.17555 -2.1797,5.99853 -1.4568,1.814 -3.4595,2.72608 -5.9985,2.72608 z m 909.939,-51.25049 c -26.53691,-1.091 -53.3449,-8.99632 -80.4199,-23.71729 -27.082,-14.72094 -51.7945,-34.17095 -74.1475,-58.33886 -22.355,-24.17694 -40.9867,-52.43386 -55.8867,-84.78077 -14.908,-32.35591 -23.2631,-66.70448 -25.0781,-103.04736 0,-23.63194 2.9976,-44.34936 8.9956,-62.15333 5.996,-17.80494 14.1759,-33.07183 24.5346,-45.7998 10.359,-12.71897 22.3539,-23.17115 35.9839,-31.34912 13.63,-8.178 27.9853,-14.62699 43.0723,-19.35499 15.079,-4.71997 30.5327,-7.99145 46.3447,-9.81445 15.811,-1.814 30.98247,-2.72607 45.52444,-2.72607 10.90397,0 22.35515,0.46077 34.34912,1.36377 11.99497,0.911 24.26177,2.27438 36.80274,4.08838 12.53994,1.82297 24.89176,4.00448 37.07373,6.54345 12.17397,2.547 23.71761,5.63907 34.62158,9.26807 2.906,1.09 7.90617,2.45338 14.99414,4.08838 7.088,1.636 14.17568,3.45961 21.26368,5.45361 7.08797,2.001 13.35708,4.08856 18.81005,6.26953 5.451,2.181 8.17823,4.1831 8.17823,5.99707 0,2.547 -1.27739,3.81739 -3.81739,3.81739 h -1.08837 c -10.18197,-3.272 -20.26878,-6.62892 -30.26075,-10.08692 -10.00197,-3.45097 -19.90038,-6.45007 -29.71435,-8.99707 l -29.98682,-7.6333 c -18.17994,-3.99497 -36.71783,-7.36045 -55.6128,-10.08545 -18.90394,-2.727 -38.35246,-4.08984 -58.3374,-4.08984 -11.99597,0 -24.08383,0.73362 -36.25783,2.18262 -12.182,1.45597 -24.0834,3.63699 -35.7114,6.54199 -25.447,6.90897 -45.9876,15.99877 -61.6113,27.26074 -15.631,11.27097 -27.8051,23.81071 -36.5288,37.61865 -8.723,13.81897 -14.5413,28.53161 -17.4463,44.16358 -2.913,15.62494 -4.3623,31.25624 -4.3623,46.88818 0.724,13.08497 2.8115,26.89556 6.2695,41.4375 3.45,14.53297 8.18,28.9803 14.1767,43.34327 5.997,14.35494 13.2646,28.53184 21.8086,42.52881 8.536,13.98794 18.264,27.34432 29.168,40.07226 7.268,8.724 16.3582,18.07762 27.2622,28.07959 10.904,9.99197 23.0778,19.35616 36.5288,28.07813 13.444,8.72397 27.8063,15.99006 43.0723,21.81006 15.26494,5.80897 31.07816,8.72168 47.4331,8.72168 6.54297,0 13.71763,-0.81764 21.5376,-2.45361 7.81097,-1.635 15.44544,-4.08838 22.89844,-7.35938 7.44497,-3.272 14.35475,-7.45453 20.71875,-12.54053 6.35497,-5.09497 11.35514,-11.27016 14.99414,-18.53613 l 3.81592,-6.54346 c 2.53697,-3.63797 4.90638,-8.17837 7.08838,-13.63037 0.357,-1.456 1.44799,-2.18115 3.27099,-2.18115 2.906,0 4.36231,1.63523 4.36231,4.90723 -2.914,13.08494 -7.63379,24.34676 -14.17676,33.80273 -6.54297,9.44797 -14.26793,17.17439 -23.1709,23.17236 -8.91197,5.997 -18.63193,10.44394 -29.1709,13.35791 -10.54697,2.905 -21.263,4.36231 -32.16797,4.36231 z m -923.0244,-0.54492 V -214.534 l -17.9927,-222.99317 -9.813,-106.31837 -153.75,0.54639 c 29.441,57.79288 59.1556,115.0408 89.1416,171.74268 29.987,56.70288 59.1563,114.30811 87.5083,172.83399 z m 1211.97949,-82.87354 c -2.179,0 -3.81577,-1.09146 -4.90577,-3.27246 l -1.0913,-1.08984 -81.23585,-137.93995 c -0.28917,-0.29646 -0.436,-0.74275 -0.49365,-1.27441 l -1.14111,-1.99659 c -0.733,-2.18096 -1.45469,-3.6383 -2.17969,-4.3623 l -4.90869,-8.72314 c -2.547,-4.004 -5.36522,-7.90615 -8.44922,-11.72315 -3.094,-3.817 -6.09207,-7.54776 -8.99707,-11.17676 -4.003,-4.72696 -8.27256,-8.09245 -12.81152,-10.08545 -4.551,-2.002 -7.00384,-3.18692 -7.36084,-3.54492 h -2.18262 c -2.18,0 -3.271,1.44831 -3.271,4.36231 0,2.90496 0.35931,5.63022 1.09131,8.17822 0.725,2.538 1.44769,5.81049 2.17969,9.81445 l 3.271,8.72315 8.72607,17.44629 4.36084,8.17822 3.81592,5.99707 c 0.724,0.725 1.08984,1.44915 1.08984,2.18115 h 0.54639 c 0.359,0.725 0.54492,1.815 0.54492,3.271 0,1.448 -0.54623,2.9053 -1.63623,4.3623 -1.09,1.448 -2.72576,2.18116 -4.90576,2.18116 -1.457,0 -2.72592,-0.54524 -3.81592,-1.63624 l -2.18262,-1.63623 -6.54345,-5.45068 -23.44336,-22.35498 c -12.72796,-12.36096 -24.62894,-25.81227 -35.7129,-40.34619 -11.09196,-14.54196 -20.98993,-29.44208 -29.71289,-44.70704 v 1.08985 c 2.912,10.53796 5.99607,21.62232 9.26807,33.25928 3.271,11.62792 6.9003,22.89877 10.9043,33.80273 l 23.98974,65.97217 8.72315,22.35205 c 0,0.359 0.0859,0.63085 0.27392,0.81885 0.177,0.178 0.271,0.45138 0.271,0.81738 0,1.448 -0.63823,2.81185 -1.90723,4.08985 -1.278,1.268 -2.8193,1.90869 -4.6333,1.90869 -2.549,0 -4.36361,-0.91208 -5.45361,-2.72608 l -0.54492,-1.08984 -37.5044,-63.91699 c -0.28546,-0.25469 -0.52065,-0.55989 -0.65332,-0.96534 l -28.35205,-45.79834 c -3.637,-6.18396 -7.18141,-12.36017 -10.63037,-18.53613 -3.459,-6.18496 -6.45911,-11.81687 -8.99707,-16.90283 l -1.63623,-2.72608 v 4.90723 c 0,5.80996 0.17992,11.26145 0.54492,16.35645 0.359,5.08596 0.90569,10.35956 1.63769,15.81152 l 2.17969,15.81152 v 0.54493 c 0,3.99496 -1.82272,5.99707 -5.45068,5.99707 -1.824,0 -3.36723,-0.81715 -4.63623,-2.45215 -1.278,-1.636 -1.90723,-3.36569 -1.90723,-5.17969 l -1.63623,-4.3623 c -0.733,-3.272 -2.00238,-7.08826 -3.81738,-11.44922 -1.823,-4.362 -3.63715,-8.54457 -5.45215,-12.54053 l -7.08692,-15.81153 -8.17822,-14.72168 -4.90869,-7.63183 -4.90576,-6.54346 c -2.18,-2.913 -3.99615,-4.90707 -5.45215,-5.99707 l -2.72607,-2.17969 c -1.09,0 -1.63624,-0.18838 -1.63624,-0.54638 h -1.63476 c -1.449,0 -2.538,1.17549 -3.271,3.54345 -0.724,2.36 -1.09131,4.81388 -1.09131,7.36084 0.366,4.362 0.91227,9.44761 1.63623,15.26661 0.733,5.80896 2.18088,11.80771 4.36084,17.99267 l 5.45362,16.35498 c 4.00396,7.99196 7.54637,15.81187 10.63037,23.44483 3.093,7.63296 7.18207,15.07955 12.26807,22.35351 l 9.81445,13.08545 c 2.904,3.63 5.72372,6.62761 8.45068,8.99561 2.726,2.361 5.72611,4.99223 8.99707,7.90723 l 4.90577,2.72461 c 0.725,0 1.08984,0.18038 1.08984,0.54638 h 0.54639 c 1.44696,0 2.53799,0.72419 3.27099,2.18115 0.724,1.448 1.08985,2.72492 1.08985,3.81592 0,2.181 -0.73216,3.81623 -2.18116,4.90723 -1.45696,1.09 -2.91284,1.63623 -4.36084,1.63623 -1.45696,0 -2.54699,-0.18739 -3.27099,-0.54639 l -1.08985,-0.54492 c -2.91396,-1.823 -6.18645,-4.27684 -9.81445,-7.36084 -3.638,-3.093 -7.08884,-6.63684 -10.36084,-10.63184 -2.547,-3.27096 -6.45668,-8.99633 -11.72168,-17.17529 -5.26396,-8.17796 -10.53706,-17.90501 -15.81006,-29.16797 -5.26496,-11.26996 -9.9003,-23.44385 -13.9043,-36.52881 -3.99496,-13.08492 -5.99707,-26.17039 -5.99707,-39.25635 l 0.54639,-4.90576 c 0,-1.457 0.27238,-3.18815 0.81738,-5.18115 0.545,-2.002 1.72846,-3.35588 3.54346,-4.08984 l 2.18115,-2.17969 c 0.733,-0.358 1.822,-0.54492 3.271,-0.54492 h 1.63476 c 0.733,0 1.27824,0.18692 1.63624,0.54492 l 2.72607,1.08984 c 3.272,1.824 6.72991,4.90857 10.35791,9.26953 3.639,4.361 7.08884,9.26822 10.36084,14.72022 l 4.36084,7.08838 8.17969,15.81152 4.36084,7.08838 3.27246,5.99561 c 0,-0.732 -0.0939,-1.45569 -0.27393,-2.17969 -0.187,-0.732 -0.27099,-1.45815 -0.27099,-2.18115 -0.367,-6.909 -0.367,-12.90522 0,-17.99122 0.357,-4.72896 0.99522,-8.91256 1.90722,-12.54052 0.902,-3.638 2.63169,-5.45215 5.17969,-5.45215 2.179,0 3.45038,0.72415 3.81738,2.18115 l 5.99561,11.99414 c 4.363,8.72296 9.44907,18.26555 15.26807,28.62451 5.80796,10.35896 11.80521,20.07801 17.99121,29.16797 1.09,1.448 2.45338,3.35808 4.08838,5.72608 1.637,2.359 3.27169,4.71891 4.90869,7.08691 1.635,2.359 2.99691,4.63446 4.08691,6.81446 0.67021,1.33916 1.10959,2.44737 1.36817,3.375 l 16.61865,23.8872 c -7.27496,-21.80888 -14.44964,-44.5304 -21.5376,-68.15332 -7.08796,-23.63192 -12.07921,-46.16505 -14.99121,-67.60693 l -0.54785,-1.08985 c 0,-0.358 0.18885,-1.09015 0.54785,-2.18115 0.365,-1.089 1.27661,-1.63477 2.72461,-1.63477 1.091,0 2.00207,0.73169 2.72607,2.17969 11.27196,21.44292 24.62078,41.34322 40.07374,59.70118 15.44592,18.34992 32.43964,35.3461 50.97656,50.97802 -1.455,-3.63796 -2.72492,-7.81906 -3.81592,-12.53906 l -3.27246,-9.81299 -1.63477,-9.81592 c -0.732,-2.91296 -1.08984,-5.4523 -1.08984,-7.6333 0,-3.63696 0.998,-6.54214 3,-8.72314 1.994,-2.181 4.26599,-3.271 6.81299,-3.271 4.36296,0 8.63199,1.26939 12.81299,3.81739 4.17596,2.53796 8.08468,5.72499 11.72168,9.54199 3.62896,3.81596 7.08884,7.99006 10.36084,12.53906 3.27096,4.541 6.35553,8.99695 9.26953,13.35791 l 8.17676,12.53906 2.72607,3.81592 v 0.54639 c 0,0.358 0.0845,0.62938 0.27246,0.81738 0.1329,0.13215 0.2018,0.33482 0.23731,0.57129 l 56.18994,86.93701 -4.90576,-15.81152 c -10.54695,-34.53585 -20.71979,-68.61167 -30.53174,-102.22852 -9.81495,-33.6238 -17.99172,-68.06651 -24.53467,-103.31836 0,-2.905 1.089,-4.3623 3.271,-4.3623 1.09,0 1.99161,0.73315 2.72461,2.18115 l 16.35791,34.34912 c 7.26795,13.80895 14.44667,27.53263 21.53467,41.16358 7.08795,13.6299 14.99375,27.71151 23.71875,42.25341 l 9.81298,14.72168 5.99707,5.99707 c 0.725,0.724 1.44862,1.09131 2.18262,1.09131 v -10.35937 l -2.18262,-17.99268 c -0.73195,-2.913 -1.45715,-5.91165 -2.18115,-8.9956 -0.733,-3.092 -1.45469,-6.09212 -2.17969,-8.99707 l -9.26953,-25.62452 -4.36084,-8.17822 -1.08984,-2.18115 c -1.824,-1.823 -4.18296,-3.91058 -7.08691,-6.26953 -2.915,-2.368 -5.82008,-4.72938 -8.72608,-7.08838 -2.912,-2.368 -5.36591,-4.63446 -7.35791,-6.81446 -2.002,-2.18095 -3,-3.81769 -3,-4.90869 0.724,-1.822 1.63461,-2.72461 2.72461,-2.72461 5.08595,-0.366 10.9048,1.81451 17.44775,6.54346 6.543,4.719 11.80753,10.90318 15.81153,18.53613 l 3.27099,5.99707 20.71875,20.17383 32.51221,33.55078 c -1.68002,-3.38882 -3.42482,-7.09254 -5.25293,-11.19726 -2.90595,-6.54295 -5.53676,-13.90406 -7.90576,-22.08106 -2.36,-8.17895 -3.54346,-16.27125 -3.54346,-24.2622 0,-1.823 0.093,-3.81612 0.271,-5.99707 0.188,-2.181 0.63977,-4.36246 1.36377,-6.54346 l 5.45361,-9.26807 c 1.823,-0.732 3.45681,-1.45815 4.90576,-2.18115 1.457,-0.733 3.09323,-1.08984 4.90723,-1.08984 h 2.72608 c 4.72795,0 9.08945,1.36242 13.08545,4.08837 3.99495,2.726 7.71629,6.26989 11.17529,10.63184 3.45095,4.362 6.62946,9.08234 9.54346,14.17529 2.90495,5.086 5.4513,9.99322 7.6333,14.72022 l 3.27246,7.08838 c 0.722,-1.822 2.62919,-3.63815 5.72314,-5.45215 3.084,-1.822 5.90169,-2.72607 8.45069,-2.72607 5.08395,0 9.99368,1.36484 14.72168,4.08984 4.71895,2.727 9.07998,6.27084 13.08398,10.63184 3.41614,3.72813 6.69343,7.73565 9.84668,11.99853 -0.73804,-2.18386 -1.48813,-4.35507 -2.21924,-6.54639 -3.62895,-10.9039 -6.54114,-19.26959 -8.72314,-25.07959 l -11.99414,-31.07812 c -0.725,-2.548 -1.63754,-5.00084 -2.72754,-7.36084 -1.091,-2.368 -2.181,-4.82138 -3.271,-7.35938 l -2.18115,-3.81738 -3.81592,-5.99707 -0.54492,-0.54492 -0.54492,-1.63623 v -1.09131 l -0.54639,-1.08985 c 0,-1.09095 0.36631,-1.90761 1.09131,-2.45361 0.732,-0.545 1.45615,-0.81738 2.18115,-0.81738 0.732,0 1.18377,0.0945 1.36377,0.27246 0.187,0.188 0.63784,0.27246 1.36084,0.27246 l 0.54639,0.54639 c 1.09,0.732 1.63476,1.36269 1.63476,1.90869 0,0.545 0.36685,1.18223 1.08985,1.90723 l 1.09131,2.18115 7.08837,9.81299 c 10.90495,15.2669 22.81348,30.16659 35.71143,44.70849 12.89895,14.53295 26.07486,28.7094 39.52881,42.52735 l 11.44922,11.44922 7.6333,6.54345 c 0.357,-2.54695 0.72489,-5.27473 1.08984,-8.17968 0.358,-2.913 0.54493,-5.81715 0.54493,-8.72315 v -8.17822 c 0,-2.913 -0.093,-5.63927 -0.271,-8.17822 -0.188,-2.547 -0.27393,-5.27323 -0.27393,-8.17823 v -16.35644 -8.72315 c 0,-2.91395 0.35785,-5.81861 1.08985,-8.72461 l 1.09131,-2.17968 c 0,-0.733 0.45177,-2.09543 1.36377,-4.08838 0.903,-2.003 2.81061,-3 5.72461,-3 0.725,0 1.36222,0.17892 1.90722,0.54492 0.545,0.358 0.99677,0.54492 1.36377,0.54492 l 2.72461,1.63623 c 0.359,0.725 1.44946,1.99392 3.27246,3.81592 1.814,1.815 3.62715,3.81758 5.45215,5.99853 l 4.90723,6.542 c 3.65226,4.69854 7.01132,9.58931 10.10449,14.66308 -0.28044,-0.88854 -0.56488,-1.77037 -0.83935,-2.66748 -3.996,-13.0849 -5.99854,-26.1704 -5.99854,-39.25635 l 0.54639,-4.90576 c 0,-1.457 0.27238,-3.18815 0.81738,-5.18115 0.545,-2.002 1.72992,-3.35589 3.54492,-4.08984 l 2.17969,-2.17969 c 0.735,-0.358 1.824,-0.54492 3.271,-0.54492 h 1.63769 c 0.732,0 1.2763,0.18692 1.6333,0.54492 l 2.72754,1.08984 c 3.272,1.824 6.73038,4.90858 10.35938,9.26953 3.63695,4.361 7.08737,9.26822 10.35937,14.72022 l 4.36084,7.08838 8.17822,15.81152 4.36084,7.08838 3.27246,5.99561 c 0,-0.732 -0.0945,-1.45569 -0.27246,-2.17969 -0.187,-0.732 -0.27246,-1.45815 -0.27246,-2.18115 -0.365,-6.909 -0.365,-12.90522 0,-17.99122 0.357,-4.72895 0.99723,-8.91257 1.90723,-12.54052 0.904,-3.638 2.63269,-5.45215 5.17969,-5.45215 2.18095,0 3.45092,0.72415 3.81592,2.18115 l 5.99853,11.99414 c 4.361,8.72295 9.44765,18.26556 15.2666,28.62451 5.81,10.35895 11.80726,20.07802 17.99121,29.16797 1.09,1.448 2.45285,3.35808 4.08985,5.72608 1.635,2.359 3.27227,4.71891 4.90722,7.08691 1.637,2.359 2.99985,4.63446 4.08985,6.81446 0.66898,1.33915 1.10684,2.44737 1.36523,3.375 l 16.61866,23.8872 c -7.275,-21.80885 -14.44819,-44.53042 -21.53614,-68.15332 -7.08795,-23.6319 -12.07872,-46.16508 -14.99267,-67.60693 l -0.54639,-1.08985 c 0,-0.358 0.18939,-1.09015 0.54639,-2.18115 0.367,-1.089 1.27607,-1.63477 2.72607,-1.63477 1.089,0 2.00212,0.73169 2.72607,2.17969 11.26995,21.4429 24.61979,41.34323 40.07374,59.70118 15.4449,18.3499 32.44112,35.34612 50.97802,50.97802 -1.45695,-3.63795 -2.72591,-7.81906 -3.81591,-12.53906 l -3.27246,-9.81299 -1.6377,-9.81592 c -0.732,-2.91295 -1.08838,-5.4523 -1.08838,-7.6333 0,-3.63695 0.998,-6.54214 3,-8.72314 1.992,-2.181 4.2675,-3.271 6.81445,-3.271 4.361,0 8.62904,1.26939 12.81299,3.81739 4.173,2.53795 8.08373,5.72499 11.72168,9.54199 1.01939,1.07191 2.02101,2.17876 3.01319,3.30761 -1.74819,-4.59204 -3.39635,-9.48763 -4.92334,-14.7583 -2.36,-8.17895 -3.542,-16.27125 -3.542,-24.2622 0,-1.823 0.093,-3.81612 0.271,-5.99707 0.188,-2.181 0.63831,-4.36246 1.36231,-6.54346 l 5.45361,-9.26807 c 1.823,-0.732 3.45676,-1.45815 4.90576,-2.18115 1.457,-0.733 3.09323,-1.08984 4.90723,-1.08984 h 2.72607 c 4.728,0 9.0895,1.36242 13.08545,4.08837 3.995,2.726 7.71634,6.26989 11.17529,10.63184 3.451,4.362 6.62946,9.08234 9.54346,14.17529 2.905,5.086 5.4513,9.99322 7.6333,14.72022 l 3.27246,7.08838 c 0.722,-1.822 2.62915,-3.63815 5.72315,-5.45215 3.084,-1.822 5.90168,-2.72607 8.45068,-2.72607 5.084,0 9.99369,1.36484 14.721682,4.08984 4.718975,2.727 9.080005,6.27084 13.083985,10.63184 3.99598,4.36095 7.813239,9.08029 11.449219,14.17529 3.63098,5.08595 7.08739,9.81376 10.359375,14.17676 l 9.814454,17.44629 c 0.356995,0.358 0.544921,0.90323 0.544921,1.63623 0,2.17995 -1.090471,3.27099 -3.272461,3.27099 -1.82199,0 -4.455312,-3.00007 -7.904297,-8.99707 -3.45898,-5.99695 -7.634552,-12.72741 -12.540527,-20.17236 -4.905975,-7.45395 -10.359011,-14.17688 -16.354981,-20.17383 -5.99795,-5.99795 -12.45545,-8.99561 -19.35645,-8.99561 l -3.27099,1.08985 c -1.824,0.725 -3.81607,2.53915 -5.99707,5.45215 l -2.18262,4.3623 c 0.359,1.449 0.72577,2.72643 1.09277,3.81738 0.357,1.091 0.72385,2.53889 1.08985,4.36084 l 2.18115,8.72315 c 0.723,2.905 1.26977,5.72515 1.63477,8.45215 0.358,2.726 0.54492,6.08296 0.54492,10.08691 0,2.904 -0.27092,6.17599 -0.81592,9.81299 -0.547,3.629 -2.45554,7.08738 -5.72754,10.35938 l -1.08984,1.08984 1.08984,2.17969 v 1.09131 c 0,3.27195 -1.63476,5.45245 -4.90576,6.54345 h -1.63477 c -0.367,0.357 -0.91269,0.54493 -1.63769,0.54493 -5.818,0 -11.26903,-2.36843 -16.35498,-7.08838 -4.0886,-3.79335 -7.69453,-7.82047 -10.83838,-12.07911 -0.87708,-0.18946 -1.63312,-0.86951 -2.24561,-2.09619 l -2.18115,-3.81592 c -0.19201,-0.57128 -0.38326,-1.08679 -0.57422,-1.55859 l -2.15185,-3.34863 c -1.092,-1.457 -2.90762,-4.54958 -5.45362,-9.26953 -0.43693,-0.81315 -0.88662,-1.68947 -1.33447,-2.55616 -1.88231,-2.73534 -3.88553,-5.42778 -6.0249,-8.07568 -3.092,-3.817 -6.09161,-7.54776 -8.99561,-11.17676 -4.004,-4.72695 -8.27199,-8.09245 -12.81299,-10.08545 -4.54895,-2.002 -7.00237,-3.18692 -7.35937,-3.54492 h -2.18116 c -2.18195,0 -3.27099,1.44831 -3.27099,4.36231 0,2.90495 0.35638,5.63022 1.08838,8.17822 0.725,2.538 1.45066,5.8105 2.18261,9.81445 l 3.271,8.72315 8.72168,17.44629 4.36231,8.17822 3.81884,5.99707 c 0.723,0.725 1.08985,1.44915 1.08985,2.18115 h 0.54492 c 0.357,0.725 0.54492,1.815 0.54492,3.271 0,1.448 -0.54481,2.9053 -1.63476,4.3623 -1.092,1.448 -2.7277,2.18116 -4.9087,2.18116 -1.457,0 -2.72538,-0.54524 -3.81738,-1.63624 l -2.17822,-1.63623 -6.54346,-5.45068 -23.44629,-22.35498 c -12.72595,-12.36095 -24.62801,-25.81229 -35.70996,-40.34619 -11.09195,-14.54195 -20.99087,-29.44209 -29.71582,-44.70704 v 1.08985 c 2.914,10.53795 5.99904,21.62233 9.27099,33.25928 3.271,11.6279 6.89884,22.89878 10.90284,33.80273 l 23.98974,65.97217 8.72315,22.35205 c 0,0.359 0.0845,0.63085 0.27246,0.81885 0.179,0.178 0.27392,0.45138 0.27392,0.81738 0,1.448 -0.63969,2.81185 -1.90869,4.08985 -1.277,1.268 -2.81976,1.90869 -4.63476,1.90869 -2.547,0 -4.36069,-0.91208 -5.45069,-2.72608 l -0.54785,-1.08984 -37.50146,-63.91553 c -0.28662,-0.25497 -0.52247,-0.56023 -0.65625,-0.9668 l -28.35059,-45.79834 c -3.639,-6.18395 -7.18084,-12.36018 -10.63184,-18.53613 -3.45895,-6.18495 -6.45807,-11.81688 -8.99707,-16.90283 l -1.63476,-2.72608 v 4.90723 c 0,5.80995 0.17792,11.26145 0.54492,16.35645 0.358,5.08595 0.90277,10.35957 1.63477,15.81152 l 2.18261,15.81152 v 0.54493 c 0,3.99495 -1.82561,5.99707 -5.45361,5.99707 -1.823,0 -3.36484,-0.81715 -4.63184,-2.45215 -1.28,-1.636 -1.90869,-3.36569 -1.90869,-5.17969 l -1.63623,-4.3623 c -0.733,-3.272 -2.00238,-7.08827 -3.81738,-11.44922 -1.822,-4.362 -3.63662,-8.54458 -5.45362,-12.54053 l -7.08544,-15.81153 -8.17969,-14.72168 -4.90576,-7.63183 -4.90723,-6.54346 c -2.181,-2.913 -3.99515,-4.90707 -5.45215,-5.99707 l -2.72754,-2.17969 c -1.089,0 -1.6333,-0.18838 -1.6333,-0.54638 h -1.63769 c -1.447,0 -2.536,1.1755 -3.271,3.54345 -0.722,2.36 -1.08984,4.81389 -1.08984,7.36084 0.36695,4.362 0.91223,9.44761 1.63623,15.26661 0.73295,5.80895 2.1803,11.80772 4.3623,17.99267 l 5.45068,16.35498 c 4.004,7.99195 7.54931,15.81188 10.63331,23.44483 3.09095,7.63295 7.1806,15.07956 12.2666,22.35351 l 9.81299,13.08545 c 2.90595,3.63 5.72368,6.62761 8.45068,8.99561 2.726,2.361 5.72461,4.99223 8.99561,7.90723 l 4.90869,2.72461 c 0.723,0 1.08984,0.18038 1.08984,0.54638 h 0.54492 c 1.449,0 2.539,0.7242 3.271,2.18115 0.725,1.448 1.08984,2.72492 1.08984,3.81592 0,2.181 -0.73122,3.81623 -2.17822,4.90723 -1.457,1.09 -2.91377,1.63623 -4.36377,1.63623 -1.455,0 -2.54753,-0.18739 -3.26953,-0.54639 l -1.09277,-0.54492 c -2.912,-1.823 -6.18353,-4.27684 -9.81153,-7.36084 -3.63895,-3.093 -7.08742,-6.63684 -10.35937,-10.63184 -2.549,-3.27095 -6.45915,-8.99634 -11.72315,-17.17529 -0.63605,-0.98796 -1.27239,-2.00051 -1.90869,-3.03369 -0.90398,-0.94978 -1.8958,-2.27367 -2.99561,-4.05322 -2.36695,-3.817 -4.9063,-8.1775 -7.6333,-13.08545 -2.72595,-4.906 -5.36676,-9.90668 -7.90576,-14.99268 -2.547,-5.09295 -4.54865,-8.7233 -5.9956,-10.9043 l -9.26954,-14.17675 c -1.45695,-2.18 -2.81991,-4.45446 -4.08691,-6.81446 -1.28,-2.36795 -2.82223,-4.63345 -4.63623,-6.81445 l -9.81445,-12.54053 -4.36084,-3.27099 v 0.54492 c -0.367,1.814 -0.73278,3.62915 -1.09278,5.45215 -0.365,1.81395 -0.54492,3.62919 -0.54492,5.45214 0,9.448 0.45077,18.81018 1.36377,28.07813 0.904,9.26895 1.36377,19.16841 1.36377,29.71436 0,1.448 -0.0939,2.81084 -0.27393,4.08984 -0.185,1.268 -0.45891,2.81077 -0.81591,4.63477 l -1.09278,4.90722 c -0.732,1.448 -1.54815,2.80938 -2.45215,4.08838 -0.90995,1.269 -2.09645,1.90869 -3.54345,1.90869 h -0.54492 l -1.09131,0.54493 c -0.732,0 -1.27777,-0.18793 -1.63477,-0.54493 h -1.63623 l -0.54492,-0.54492 -2.72608,-1.09131 c -0.73395,-0.732 -1.36315,-1.18377 -1.91015,-1.36377 -0.545,-0.188 -1.00384,-0.6393 -1.36084,-1.3623 l -6.54199,-5.99707 c -6.186,-5.453 -12.09073,-11.44968 -17.72168,-17.99268 -5.638,-6.54195 -10.99799,-12.90652 -16.08399,-19.08252 l -21.26367,-25.62451 -9.81299,-13.08691 -8.17969,-10.35792 3.27246,7.63331 43.61719,107.40674 c 0.359,0 0.54639,0.90354 0.54639,2.72754 0,1.44795 -0.54623,2.81142 -1.63623,4.08837 -1.09,1.27 -2.54684,1.9087 -4.36084,1.9087 -2.182,0 -5.09415,-4.00466 -8.72315,-11.99561 -3.59968,-7.93105 -7.29748,-17.20854 -11.08007,-27.81006 -3.01935,-5.07589 -6.48452,-10.60429 -10.45167,-16.62451 -4.90595,-7.45395 -10.35898,-14.17688 -16.35498,-20.17383 -5.99795,-5.99795 -12.45549,-8.99561 -19.35644,-8.99561 l -3.271,1.08985 c -1.824,0.725 -3.81607,2.53915 -5.99707,5.45215 l -2.18262,4.3623 c 0.359,1.449 0.72578,2.72643 1.09278,3.81738 0.357,1.091 0.72384,2.53889 1.08984,4.36084 l 2.18115,8.72315 c 0.723,2.905 1.26977,5.72515 1.63477,8.45215 0.358,2.726 0.54492,6.08296 0.54492,10.08691 0,2.904 -0.27092,6.17599 -0.81592,9.81299 -0.547,3.629 -2.45554,7.08738 -5.72754,10.35938 l -1.08984,1.08984 1.08984,2.17969 v 1.09131 c 0,3.27195 -1.63476,5.45245 -4.90576,6.54345 h -1.63476 c -0.367,0.357 -0.9127,0.54493 -1.6377,0.54493 -5.81795,0 -11.26898,-2.36843 -16.35498,-7.08838 -4.65418,-4.31813 -8.68836,-8.93686 -12.11865,-13.85889 -0.14015,-0.11333 -0.28016,-0.17616 -0.42041,-0.31641 l -25.62451,-26.71582 -33.25782,-33.80273 c 3.27,9.08095 6.08222,18.44417 8.44922,28.07812 2.362,9.62695 3.54492,19.53441 3.54492,29.71436 v 3.81738 l -0.54492,2.72461 c 0,1.449 -0.18692,2.45354 -0.54492,2.99854 -0.367,0.545 -0.54639,1.17569 -0.54639,1.90869 l -1.08984,2.18115 -2.17969,1.63623 -3.271,2.17969 h -3.27246 c -0.367,0 -0.73277,-0.0935 -1.09277,-0.27246 -0.365,-0.187 -0.73184,-0.27246 -1.08984,-0.27246 l -3.271,-1.08985 -4.90576,-3.27099 -4.36231,-3.81739 -8.72314,-12.54052 -4.90723,-8.72315 c -4.72795,-8.36595 -8.91153,-16.99502 -12.54053,-25.89697 -3.63595,-8.90995 -7.63214,-17.54049 -11.99414,-25.89844 l -16.35791,-34.34766 -4.90576,-10.90576 11.44922,43.61865 c 5.80995,22.5329 12.26703,44.97916 19.35498,67.33301 7.08795,22.3539 14.80737,44.98101 23.17237,67.88086 l 17.99121,49.61426 6.54345,16.90137 c 0,0.359 0.0859,0.72531 0.27393,1.09131 0.178,0.357 0.271,0.72384 0.271,1.08984 0,1.815 -0.73216,3.35577 -2.18116,4.63477 -1.455,1.269 -3.09227,1.90869 -4.90722,1.90869 z m -870.67969,-31.07813 c -3.638,0 -5.817,-1.82316 -6.542,-5.45214 l -3.8159,-17.99122 c -0.367,-0.36598 -0.545,-0.91223 -0.545,-1.63623 0,-3.27098 1.8147,-4.90722 5.4507,-4.90722 2.182,0 3.9952,1.26992 5.4522,3.81592 l 5.997,17.44775 v 1.63477 c 0,1.81498 -0.5447,3.45169 -1.6347,4.90869 -1.09,1.448 -2.5473,2.17968 -4.3623,2.17968 z m 76.3257,-88.32422 c 0.724,0 1.0898,-0.18738 1.0898,-0.54638 0,-0.366 0.1789,-0.73185 0.5449,-1.08985 l 0.545,-3.27099 c 0.3578,-0.733 0.5449,-1.82348 0.5449,-3.27246 l -1.0899,-16.35645 c -0.733,-3.272 -1.2777,-6.27061 -1.6347,-8.99561 -0.367,-2.72598 -0.9127,-5.36629 -1.6377,-7.90429 l -2.7246,-12.54053 -1.0914,-3.81738 c -1.8218,-5.095 -4.0884,-10.18016 -6.8144,-15.26514 -2.726,-5.09498 -6.0919,-9.09107 -10.0869,-11.99707 l -5.9971,-3.26953 c -3.996,0 -6.3549,2.18099 -7.0869,6.54199 -0.725,4.362 -1.0913,7.81238 -1.0913,10.35938 0.366,2.90598 0.6379,5.63022 0.8159,8.17822 0.188,2.538 0.6408,5.26522 1.3638,8.17822 l 2.7275,10.9043 5.4507,11.44922 c 2.538,5.08498 5.0863,9.99268 7.6333,14.72168 2.538,4.71898 5.81,9.08145 9.813,13.08545 l 2.7275,2.18115 c 0.725,0.724 1.2703,1.08984 1.6363,1.08984 0.358,0 0.7233,0.17893 1.0913,0.54493 z m 881.58983,-13.08691 c 0,-0.366 -0.0939,-0.63838 -0.27393,-0.81738 -0.187,-0.187 -0.27392,-0.45985 -0.27392,-0.81885 v -0.54492 c -0.733,-3.638 -1.27777,-7.08696 -1.63477,-10.35791 -0.367,-3.272 -0.54492,-6.73038 -0.54492,-10.35938 0,-5.45195 0.17792,-10.90449 0.54492,-16.35644 0.357,-5.452 1.447,-10.35873 3.271,-14.72168 v -1.08985 c -1.457,-5.09395 -3.09081,-10.18065 -4.90576,-15.2666 -1.824,-5.094 -4.18343,-9.81334 -7.08838,-14.17529 -0.734,-1.09 -1.824,-2.99766 -3.271,-5.72461 -1.457,-2.725 -3.36461,-5.45323 -5.72461,-8.17823 -2.369,-2.72695 -5.08669,-5.17984 -8.17969,-7.36084 -3.08395,-2.18095 -6.44945,-3.27099 -10.08545,-3.27099 h -1.63476 c -4.721,0 -7.63461,1.81415 -8.72461,5.45215 -1.09,3.62895 -1.63477,7.08842 -1.63477,10.35937 -0.359,8.72295 1.72858,19.62799 6.26953,32.71289 4.549,13.08495 10.99799,25.62517 19.35499,37.62012 l 4.90722,7.08692 c 2.181,3.27195 4.90576,6.35553 8.17676,9.26953 3.272,2.90395 6.35553,4.71915 9.26953,5.45215 z m 441.60938,0 c 0,-0.366 -0.0939,-0.63838 -0.27392,-0.81738 -0.187,-0.187 -0.27393,-0.45985 -0.27393,-0.81885 v -0.54492 c -0.733,-3.638 -1.27776,-7.08696 -1.63476,-10.35791 -0.367,-3.272 -0.54492,-6.73038 -0.54492,-10.35938 0,-5.45195 0.17792,-10.90449 0.54492,-16.35644 0.357,-5.452 1.44704,-10.35873 3.27099,-14.72168 v -1.08985 c -1.457,-5.09395 -3.09076,-10.18065 -4.90576,-15.2666 -1.824,-5.094 -4.18338,-9.81334 -7.08838,-14.17529 -0.734,-1.09 -1.82404,-2.99766 -3.27099,-5.72461 -1.457,-2.725 -3.36466,-5.45323 -5.72461,-8.17823 -2.369,-2.72695 -5.08523,-5.17984 -8.17823,-7.36084 -3.08395,-2.18095 -6.45091,-3.27099 -10.08691,-3.27099 h -1.63477 c -4.72095,0 -7.63461,1.81415 -8.72461,5.45215 -1.08995,3.62895 -1.63476,7.08842 -1.63476,10.35937 -0.359,8.72295 1.72853,19.62799 6.26953,32.71289 4.549,13.08495 10.99803,25.62517 19.35498,37.62012 l 4.90723,7.08692 c 2.181,3.27195 4.90576,6.35553 8.17676,9.26953 3.27195,2.90395 6.35553,4.71915 9.26953,5.45215 z M -1711.5196,-607.34798 c -3.7914,0 -7.3151,-0.65634 -10.5718,-1.96875 -3.2081,-1.2638 -6.0276,-3.08647 -8.458,-5.46826 -2.3818,-2.33319 -4.2291,-5.07877 -5.5415,-8.23828 -1.3124,-3.11091 -1.9688,-6.5143 -1.9688,-10.2085 0,-3.6942 0.6564,-7.12076 1.9688,-10.28027 1.3124,-3.11091 3.1597,-5.85649 5.5415,-8.23828 2.4304,-2.33318 5.2499,-4.15731 8.458,-5.46973 3.2567,-1.26381 6.7804,-1.89551 10.5718,-1.89551 3.7914,0 7.2919,0.6317 10.5,1.89551 3.2567,1.31242 6.0748,3.13655 8.4565,5.46973 2.3818,2.33318 4.2291,5.05413 5.5415,8.16504 1.361,3.15951 2.042,6.6107 2.042,10.35351 0,3.74282 -0.681,7.17084 -2.042,10.28174 -1.3124,3.15952 -3.1597,5.9051 -5.5415,8.23828 -2.3817,2.33319 -5.1998,4.13122 -8.4565,5.39502 -3.2081,1.31241 -6.7086,1.96875 -10.5,1.96875 z m 132.2622,0 c -3.7915,0 -7.3151,-0.65634 -10.5718,-1.96875 -3.2081,-1.2638 -6.0276,-3.08647 -8.458,-5.46826 -2.3817,-2.33319 -4.229,-5.07877 -5.5415,-8.23828 -1.3124,-3.11091 -1.9687,-6.5143 -1.9687,-10.2085 0,-3.6942 0.6563,-7.12076 1.9687,-10.28027 1.3125,-3.11091 3.1598,-5.85649 5.5415,-8.23828 2.4304,-2.33318 5.2499,-4.15731 8.458,-5.46973 3.2567,-1.26381 6.7803,-1.89551 10.5718,-1.89551 3.7914,0 7.2919,0.6317 10.5,1.89551 3.2567,1.31242 6.0762,3.13655 8.458,5.46973 2.3818,2.33318 4.2276,5.05413 5.54,8.16504 1.361,3.15951 2.042,6.6107 2.042,10.35351 0,3.74282 -0.681,7.17084 -2.042,10.28174 -1.3124,3.15952 -3.1582,5.9051 -5.54,8.23828 -2.3818,2.33319 -5.2013,4.13122 -8.458,5.39502 -3.2081,1.31241 -6.7086,1.96875 -10.5,1.96875 z m 76.7769,0 c -3.8886,0 -7.4616,-0.65634 -10.7183,-1.96875 -3.2081,-1.2638 -6.0276,-3.06183 -8.458,-5.39502 -2.4304,-2.33318 -4.3009,-5.07876 -5.6133,-8.23828 -1.3125,-3.1109 -1.9687,-6.53892 -1.9687,-10.28174 0,-3.74281 0.6562,-7.194 1.9687,-10.35351 1.3124,-3.11091 3.1582,-5.83186 5.54,-8.16504 2.4304,-2.33318 5.2746,-4.15731 8.5313,-5.46973 3.2567,-1.26381 6.805,-1.89551 10.645,-1.89551 3.4998,0 6.8292,0.53463 9.9888,1.60401 3.2081,1.11798 5.9552,2.77113 8.2397,4.95849 v 19.10303 h -3.5727 v -17.53125 c -1.8432,-1.48237 -3.8345,-2.5945 -5.9795,-3.32227 -2.6734,-0.92355 -5.5161,-1.38427 -8.5298,-1.38427 -3.3053,0 -6.3682,0.55926 -9.1875,1.67724 -2.8193,1.11799 -5.2736,2.69724 -7.3638,4.73877 -2.0901,2.04154 -3.7186,4.42347 -4.8852,7.14551 -1.118,2.72204 -1.6773,5.68641 -1.6773,8.89453 0,3.20812 0.5593,6.17395 1.6773,8.896 1.1666,2.72204 2.7951,5.10397 4.8852,7.14551 2.0902,2.04153 4.5445,3.62079 7.3638,4.73877 2.8193,1.11798 5.8822,1.67724 9.1875,1.67724 3.1109,0 5.9782,-0.46219 8.603,-1.38574 2.6734,-0.92355 5.1278,-2.47817 7.3638,-4.66553 l 2.3335,2.47852 c -2.236,2.33318 -4.9337,4.08341 -8.0933,5.25 -3.1595,1.16659 -6.5861,1.74902 -10.2802,1.74902 z m -373.8209,-0.36475 v -51.03808 h 3.7193 v 16.69775 h 14.5825 c 4.2775,0 7.9474,0.6795 11.0098,2.04053 3.0622,1.36102 5.4196,3.33003 7.0722,5.90625 1.6527,2.57622 2.4785,5.63912 2.4785,9.1875 0,3.6456 -0.8258,6.73167 -2.4785,9.25928 -1.6526,2.57622 -4.01,4.54522 -7.0722,5.90625 -3.0624,1.36102 -6.7323,2.04052 -11.0098,2.04052 z m 66.9346,0 v -51.03808 h 3.7178 v 24.27978 h 34.1235 v -24.27978 h 3.7178 v 51.03808 h -3.7178 v -23.47705 h -34.1235 v 23.47705 z m 144.6563,0 v -3.35302 h 18.375 v -47.68506 h 3.7177 v 47.68506 h 18.3736 v 3.35302 z m 213.6328,0 v -51.03808 h 3.7178 v 16.69775 h 14.5825 c 1.7435,0 3.3803,0.11959 4.9219,0.34571 l 12.2124,-17.04346 h 4.229 l -12.7837,17.84033 c 0.8488,0.25654 1.6585,0.55498 2.4301,0.89795 3.0624,1.40962 5.4196,3.37863 7.0723,5.90625 1.6527,2.57622 2.48,5.63912 2.48,9.1875 0,3.6456 -0.8273,6.73167 -2.48,9.25928 -1.6527,2.57622 -4.0099,4.54522 -7.0723,5.90625 -3.0622,1.36102 -6.7322,2.04052 -11.0097,2.04052 z m 85.8896,0 -23.477,-51.03808 h 4.0107 l 6.5157,14.36426 h 29.6001 l 6.5375,-14.36426 h 4.0093 l -23.477,51.03808 z m 55.1954,0 v -51.03808 h 3.7177 v 16.69775 h 14.5825 c 4.2776,0 7.9475,0.6795 11.0098,2.04053 3.0623,1.36102 5.4196,3.33003 7.0723,5.90625 1.6526,2.57622 2.48,5.63912 2.48,9.1875 0,3.6456 -0.8274,6.73167 -2.48,9.25928 -1.6527,2.57622 -4.01,4.54522 -7.0723,5.90625 -3.0623,1.36102 -6.7322,2.04052 -11.0098,2.04052 z m 66.9331,0 v -51.03808 h 3.7177 v 24.27978 h 34.1236 v -24.27978 h 3.7177 v 51.03808 h -3.7177 v -23.47705 h -34.1236 v 23.47705 z m 67.6626,0 20.5605,-33.49951 v -17.53857 h 3.7192 v 17.54004 l 20.5606,33.49804 h -3.8643 l -18.4467,-30.05273 -18.4468,30.05273 z m -536.1226,-3.06152 c 3.2567,0 6.2703,-0.55926 9.041,-1.67724 2.7707,-1.11798 5.1772,-2.69724 7.2188,-4.73877 2.0415,-2.04154 3.6207,-4.42347 4.7387,-7.14551 1.1666,-2.67344 1.7505,-5.63926 1.7505,-8.896 0,-3.20812 -0.5839,-6.17249 -1.7505,-8.89453 -1.118,-2.72204 -2.6972,-5.10397 -4.7387,-7.14551 -2.0416,-2.04153 -4.4481,-3.62078 -7.2188,-4.73877 -2.7707,-1.11798 -5.7843,-1.67724 -9.041,-1.67724 -3.2567,0 -6.2704,0.55926 -9.041,1.67724 -2.7706,1.11799 -5.2018,2.69724 -7.292,4.73877 -2.0416,2.04154 -3.6454,4.42347 -4.812,7.14551 -1.118,2.72204 -1.6758,5.68641 -1.6758,8.89453 0,3.25674 0.5578,6.22256 1.6758,8.896 1.1666,2.72204 2.7704,5.10397 4.812,7.14551 2.0902,2.04153 4.5214,3.62079 7.292,4.73877 2.7706,1.11798 5.7843,1.67724 9.041,1.67724 z m 132.2622,0 c 3.2567,0 6.2703,-0.55926 9.041,-1.67724 2.7707,-1.11798 5.1772,-2.69724 7.2188,-4.73877 2.0415,-2.04154 3.6208,-4.42347 4.7387,-7.14551 1.1666,-2.67344 1.7505,-5.63926 1.7505,-8.896 0,-3.20812 -0.5839,-6.17249 -1.7505,-8.89453 -1.1179,-2.72204 -2.6972,-5.10397 -4.7387,-7.14551 -2.0416,-2.04153 -4.4481,-3.62078 -7.2188,-4.73877 -2.7707,-1.11798 -5.7843,-1.67724 -9.041,-1.67724 -3.2567,0 -6.2704,0.55926 -9.041,1.67724 -2.7707,1.11799 -5.2004,2.69724 -7.2905,4.73877 -2.0416,2.04154 -3.6455,4.42347 -4.8121,7.14551 -1.118,2.72204 -1.6772,5.68641 -1.6772,8.89453 0,3.25674 0.5592,6.22256 1.6772,8.896 1.1666,2.72204 2.7705,5.10397 4.8121,7.14551 2.0901,2.04153 4.5198,3.62079 7.2905,4.73877 2.7706,1.11798 5.7843,1.67724 9.041,1.67724 z m -293.3247,-0.2915 h 14.5825 c 5.4927,0 9.648,-1.2156 12.4673,-3.646 2.8678,-2.38179 4.3022,-5.78371 4.3022,-10.20703 0,-4.37472 -1.4344,-7.7781 -4.3022,-10.2085 -2.8193,-2.38179 -6.9746,-3.57275 -12.4673,-3.57275 h -14.5825 z m 425.2222,0 h 14.5825 c 5.4927,0 9.6495,-1.2156 12.4687,-3.646 2.8679,-2.38179 4.3008,-5.78371 4.3008,-10.20703 0,-4.37472 -1.4329,-7.7781 -4.3008,-10.2085 -2.8192,-2.43039 -6.976,-3.64599 -12.4687,-3.64599 h -14.5825 z m 141.0849,0 h 14.5825 c 5.4928,0 9.6495,-1.2156 12.4688,-3.646 2.8679,-2.38179 4.3008,-5.78371 4.3008,-10.20703 0,-4.37472 -1.4329,-7.7781 -4.3008,-10.2085 -2.8193,-2.38179 -6.976,-3.57275 -12.4688,-3.57275 h -14.5825 z m -57.0893,-0.74414 13.3989,-29.4419 h -26.7524 z"
    />
  </g>
</svg>
